<svg width="20" height="20" viewBox="0 0 20 20" fill="none" xmlns="http://www.w3.org/2000/svg">
<mask id="path-1-inside-1_389_18879" fill="white">
<path d="M19.4141 11.2663H18.7766L16.7349 6.31856C17.0208 6.27958 17.2413 6.03466 17.2413 5.73754C17.2413 5.41333 16.979 5.15049 16.6554 5.15049H11.6177C11.3769 4.48044 10.7363 4 9.98559 4C9.23488 4 8.59422 4.48048 8.3534 5.15049H3.34465C3.02105 5.15049 2.75871 5.41333 2.75871 5.73754C2.75871 6.03466 2.97926 6.27958 3.26512 6.31856L1.22344 11.2663H0.585938C0.262344 11.2663 0 11.5291 0 11.8533C0 14.1398 1.85668 16 4.13883 16C6.42098 16 8.27766 14.1398 8.27766 11.8533C8.27766 11.5291 8.01531 11.2663 7.69172 11.2663H7.05418L5.01504 6.32458H8.3534C8.59422 6.99464 9.23484 7.47508 9.98559 7.47508C10.7363 7.47508 11.3769 6.99464 11.6177 6.32458H14.985L12.9459 11.2663H12.3083C11.9847 11.2663 11.7224 11.5291 11.7224 11.8533C11.7224 14.1398 13.5791 16 15.8612 16C18.1434 16 20 14.1398 20 11.8533C20 11.5291 19.7377 11.2663 19.4141 11.2663ZM4.13883 14.8259C2.70332 14.8259 1.5027 13.7993 1.22996 12.4404H7.0477C6.77496 13.7993 5.57434 14.8259 4.13883 14.8259ZM5.78613 11.2663H2.49152L4.13883 7.27423L5.78613 11.2663ZM9.98555 6.30098C9.67543 6.30098 9.42316 6.04824 9.42316 5.73754C9.42316 5.42683 9.67543 5.17409 9.98555 5.17409C10.2956 5.17409 10.5479 5.42683 10.5479 5.73754C10.5479 6.04824 10.2957 6.30098 9.98555 6.30098ZM15.8612 7.27423L17.5085 11.2663H14.2139L15.8612 7.27423ZM15.8612 14.8259C14.4257 14.8259 13.225 13.7993 12.9523 12.4404H18.77C18.4973 13.7993 17.2966 14.8259 15.8612 14.8259Z"/>
</mask>
<path d="M19.4141 11.2663H18.7766L16.7349 6.31856C17.0208 6.27958 17.2413 6.03466 17.2413 5.73754C17.2413 5.41333 16.979 5.15049 16.6554 5.15049H11.6177C11.3769 4.48044 10.7363 4 9.98559 4C9.23488 4 8.59422 4.48048 8.3534 5.15049H3.34465C3.02105 5.15049 2.75871 5.41333 2.75871 5.73754C2.75871 6.03466 2.97926 6.27958 3.26512 6.31856L1.22344 11.2663H0.585938C0.262344 11.2663 0 11.5291 0 11.8533C0 14.1398 1.85668 16 4.13883 16C6.42098 16 8.27766 14.1398 8.27766 11.8533C8.27766 11.5291 8.01531 11.2663 7.69172 11.2663H7.05418L5.01504 6.32458H8.3534C8.59422 6.99464 9.23484 7.47508 9.98559 7.47508C10.7363 7.47508 11.3769 6.99464 11.6177 6.32458H14.985L12.9459 11.2663H12.3083C11.9847 11.2663 11.7224 11.5291 11.7224 11.8533C11.7224 14.1398 13.5791 16 15.8612 16C18.1434 16 20 14.1398 20 11.8533C20 11.5291 19.7377 11.2663 19.4141 11.2663ZM4.13883 14.8259C2.70332 14.8259 1.5027 13.7993 1.22996 12.4404H7.0477C6.77496 13.7993 5.57434 14.8259 4.13883 14.8259ZM5.78613 11.2663H2.49152L4.13883 7.27423L5.78613 11.2663ZM9.98555 6.30098C9.67543 6.30098 9.42316 6.04824 9.42316 5.73754C9.42316 5.42683 9.67543 5.17409 9.98555 5.17409C10.2956 5.17409 10.5479 5.42683 10.5479 5.73754C10.5479 6.04824 10.2957 6.30098 9.98555 6.30098ZM15.8612 7.27423L17.5085 11.2663H14.2139L15.8612 7.27423ZM15.8612 14.8259C14.4257 14.8259 13.225 13.7993 12.9523 12.4404H18.77C18.4973 13.7993 17.2966 14.8259 15.8612 14.8259Z" fill="#282739"/>
<path d="M18.7766 11.2663L15.079 12.7921L16.1 15.2663H18.7766V11.2663ZM16.7349 6.31856L16.1946 2.35522L11.0611 3.05512L13.0374 7.84433L16.7349 6.31856ZM11.6177 5.15049L7.85347 6.50339L8.80485 9.15049H11.6177V5.15049ZM8.3534 5.15049V9.15049H11.1662L12.1176 6.50345L8.3534 5.15049ZM3.26512 6.31856L6.96268 7.84435L8.93891 3.05522L3.80556 2.35523L3.26512 6.31856ZM1.22344 11.2663V15.2663H3.90002L4.921 12.7921L1.22344 11.2663ZM7.05418 11.2663L3.35661 12.7921L4.37757 15.2663H7.05418V11.2663ZM5.01504 6.32458V2.32458H-0.962677L1.31747 7.85035L5.01504 6.32458ZM8.3534 6.32458L12.1177 4.97169L11.1663 2.32458H8.3534V6.32458ZM11.6177 6.32458V2.32458H8.80485L7.85347 4.97169L11.6177 6.32458ZM14.985 6.32458L18.6826 7.85034L20.9627 2.32458H14.985V6.32458ZM12.9459 11.2663V15.2663H15.6225L16.6434 12.7921L12.9459 11.2663ZM1.22996 12.4404V8.44039H-3.65259L-2.69183 13.2275L1.22996 12.4404ZM7.0477 12.4404L10.9695 13.2275L11.9302 8.44039H7.0477V12.4404ZM5.78613 11.2663V15.2663H11.7639L9.4837 9.74052L5.78613 11.2663ZM2.49152 11.2663L-1.20604 9.74052L-3.48623 15.2663H2.49152V11.2663ZM4.13883 7.27423L7.83639 5.74845L4.13883 -3.21221L0.441262 5.74845L4.13883 7.27423ZM15.8612 7.27423L19.5587 5.74845L15.8612 -3.21221L12.1636 5.74845L15.8612 7.27423ZM17.5085 11.2663V15.2663H23.4862L21.206 9.74052L17.5085 11.2663ZM14.2139 11.2663L10.5163 9.74052L8.23612 15.2663H14.2139V11.2663ZM12.9523 12.4404V8.44039H8.06975L9.03051 13.2275L12.9523 12.4404ZM18.77 12.4404L22.6918 13.2275L23.6526 8.44039H18.77V12.4404ZM19.4141 7.2663H18.7766V15.2663H19.4141V7.2663ZM22.4741 9.74053L20.4325 4.79279L13.0374 7.84433L15.079 12.7921L22.4741 9.74053ZM17.2753 10.2819C19.5145 9.97659 21.2413 8.06373 21.2413 5.73754H13.2413C13.2413 4.00559 14.5271 2.58257 16.1946 2.35522L17.2753 10.2819ZM21.2413 5.73754C21.2413 3.21132 19.1952 1.15049 16.6554 1.15049V9.15049C14.7627 9.15049 13.2413 7.61534 13.2413 5.73754H21.2413ZM16.6554 1.15049H11.6177V9.15049H16.6554V1.15049ZM15.382 3.7976C14.5916 1.5985 12.4857 0 9.98559 0V8C8.98691 8 8.1622 7.36238 7.85347 6.50339L15.382 3.7976ZM9.98559 0C7.48551 0 5.37954 1.59853 4.58916 3.79753L12.1176 6.50345C11.8089 7.36243 10.9843 8 9.98559 8V0ZM8.3534 1.15049H3.34465V9.15049H8.3534V1.15049ZM3.34465 1.15049C0.804792 1.15049 -1.24129 3.21132 -1.24129 5.73754H6.75871C6.75871 7.61534 5.23732 9.15049 3.34465 9.15049V1.15049ZM-1.24129 5.73754C-1.24129 8.06397 0.48576 9.97658 2.72468 10.2819L3.80556 2.35523C5.47276 2.58257 6.75871 4.00536 6.75871 5.73754H-1.24129ZM-0.432443 4.79276L-2.47412 9.7405L4.921 12.7921L6.96268 7.84435L-0.432443 4.79276ZM1.22344 7.2663H0.585938V15.2663H1.22344V7.2663ZM0.585938 7.2663C-1.95392 7.2663 -4 9.32713 -4 11.8533H4C4 13.7311 2.47861 15.2663 0.585938 15.2663V7.2663ZM-4 11.8533C-4 16.3418 -0.359583 20 4.13883 20V12C4.11623 12 4.10308 11.9962 4.09233 11.9916C4.07884 11.9859 4.06166 11.9753 4.04471 11.9583C4.02775 11.9414 4.01642 11.9233 4.00988 11.9079C4.00449 11.8951 4 11.8792 4 11.8533H-4ZM4.13883 20C8.63724 20 12.2777 16.3418 12.2777 11.8533H4.27766C4.27766 11.8792 4.27317 11.8951 4.26777 11.9079C4.26124 11.9233 4.2499 11.9414 4.23295 11.9583C4.216 11.9753 4.19882 11.9859 4.18533 11.9916C4.17458 11.9962 4.16142 12 4.13883 12V20ZM12.2777 11.8533C12.2777 9.32713 10.2316 7.2663 7.69172 7.2663V15.2663C5.79905 15.2663 4.27766 13.7311 4.27766 11.8533H12.2777ZM7.69172 7.2663H7.05418V15.2663H7.69172V7.2663ZM10.7518 9.74054L8.71261 4.79882L1.31747 7.85035L3.35661 12.7921L10.7518 9.74054ZM5.01504 10.3246H8.3534V2.32458H5.01504V10.3246ZM4.58913 7.67748C5.37952 9.87663 7.48552 11.4751 9.98559 11.4751V3.47508C10.9842 3.47508 11.8089 4.11264 12.1177 4.97169L4.58913 7.67748ZM9.98559 11.4751C12.4857 11.4751 14.5916 9.87658 15.382 7.67748L7.85347 4.97169C8.1622 4.1127 8.98691 3.47508 9.98559 3.47508V11.4751ZM11.6177 10.3246H14.985V2.32458H11.6177V10.3246ZM11.2874 4.79882L9.24829 9.74054L16.6434 12.7921L18.6826 7.85034L11.2874 4.79882ZM12.9459 7.2663H12.3083V15.2663H12.9459V7.2663ZM12.3083 7.2663C9.76846 7.2663 7.72238 9.32713 7.72238 11.8533H15.7224C15.7224 13.7311 14.201 15.2663 12.3083 15.2663V7.2663ZM7.72238 11.8533C7.72238 16.3418 11.3628 20 15.8612 20V12C15.8386 12 15.8255 11.9962 15.8147 11.9916C15.8012 11.9859 15.784 11.9753 15.7671 11.9583C15.7501 11.9414 15.7388 11.9233 15.7323 11.9079C15.7269 11.8951 15.7224 11.8792 15.7224 11.8533H7.72238ZM15.8612 20C20.3597 20 24 16.3418 24 11.8533H16C16 11.8792 15.9955 11.8951 15.9901 11.9079C15.9836 11.9234 15.9722 11.9414 15.9553 11.9584C15.9383 11.9753 15.9212 11.9859 15.9077 11.9916C15.897 11.9962 15.8838 12 15.8612 12V20ZM24 11.8533C24 9.32713 21.9539 7.2663 19.4141 7.2663V15.2663C17.5214 15.2663 16 13.7311 16 11.8533H24ZM4.13883 10.8259C4.65422 10.8259 5.05846 11.1884 5.15176 11.6533L-2.69183 13.2275C-2.05307 16.4102 0.752424 18.8259 4.13883 18.8259V10.8259ZM1.22996 16.4404H7.0477V8.44039H1.22996V16.4404ZM3.1259 11.6533C3.2192 11.1884 3.62344 10.8259 4.13883 10.8259V18.8259C7.52523 18.8259 10.3307 16.4102 10.9695 13.2275L3.1259 11.6533ZM5.78613 7.2663H2.49152V15.2663H5.78613V7.2663ZM6.18909 12.7921L7.83639 8.80001L0.441262 5.74845L-1.20604 9.74052L6.18909 12.7921ZM0.441262 8.80001L2.08857 12.7921L9.4837 9.74052L7.83639 5.74845L0.441262 8.80001ZM9.98555 2.30098C11.8917 2.30098 13.4232 3.84623 13.4232 5.73754H5.42316C5.42316 8.25025 7.45917 10.301 9.98555 10.301V2.30098ZM13.4232 5.73754C13.4232 7.62884 11.8917 9.17409 9.98555 9.17409V1.17409C7.45917 1.17409 5.42316 3.22483 5.42316 5.73754H13.4232ZM9.98555 9.17409C8.07954 9.17409 6.54793 7.62902 6.54793 5.73754H14.5479C14.5479 3.22465 12.5117 1.17409 9.98555 1.17409V9.17409ZM6.54793 5.73754C6.54793 3.84623 8.0794 2.30098 9.98555 2.30098V10.301C12.5119 10.301 14.5479 8.25025 14.5479 5.73754H6.54793ZM12.1636 8.80001L13.8109 12.7921L21.206 9.74052L19.5587 5.74845L12.1636 8.80001ZM17.5085 7.2663H14.2139V15.2663H17.5085V7.2663ZM17.9114 12.7921L19.5587 8.80001L12.1636 5.74845L10.5163 9.74052L17.9114 12.7921ZM15.8612 10.8259C16.3766 10.8259 16.7808 11.1884 16.8741 11.6533L9.03051 13.2275C9.66928 16.4102 12.4748 18.8259 15.8612 18.8259V10.8259ZM12.9523 16.4404H18.77V8.44039H12.9523V16.4404ZM14.8482 11.6533C14.9415 11.1884 15.3458 10.8259 15.8612 10.8259V18.8259C19.2475 18.8259 22.0531 16.4102 22.6918 13.2275L14.8482 11.6533Z" fill="#282739" mask="url(#path-1-inside-1_389_18879)"/>
</svg>
