<svg width="39" height="12" viewBox="0 0 39 12" fill="none" xmlns="http://www.w3.org/2000/svg">
<mask id="path-1-outside-1_12919_1227" maskUnits="userSpaceOnUse" x="-1" y="-1" width="41" height="14" fill="black">
<rect fill="white" x="-1" y="-1" width="41" height="14"/>
<path d="M1.56 4.8C1.56 5.448 1.704 6.02 1.992 6.516C2.288 7.012 2.672 7.4 3.144 7.68C3.616 7.96 4.128 8.1 4.68 8.1C5.08 8.1 5.444 8.048 5.772 7.944C6.108 7.84 6.412 7.696 6.684 7.512C6.956 7.32 7.188 7.1 7.38 6.852V8.196C7.028 8.508 6.644 8.74 6.228 8.892C5.812 9.044 5.296 9.12 4.68 9.12C4.096 9.12 3.548 9.016 3.036 8.808C2.532 8.592 2.088 8.292 1.704 7.908C1.32 7.516 1.02 7.056 0.804 6.528C0.588 6 0.48 5.424 0.48 4.8C0.48 4.176 0.588 3.6 0.804 3.072C1.02 2.544 1.32 2.088 1.704 1.704C2.088 1.312 2.532 1.012 3.036 0.804C3.548 0.588 4.096 0.48 4.68 0.48C5.296 0.48 5.812 0.556 6.228 0.707999C6.644 0.859999 7.028 1.092 7.38 1.404V2.748C7.188 2.5 6.956 2.284 6.684 2.1C6.412 1.908 6.108 1.76 5.772 1.656C5.444 1.552 5.08 1.5 4.68 1.5C4.128 1.5 3.616 1.64 3.144 1.92C2.672 2.2 2.288 2.588 1.992 3.084C1.704 3.572 1.56 4.144 1.56 4.8ZM9.24684 6.48V5.664H12.9308C12.8988 5.376 12.8188 5.124 12.6908 4.908C12.5708 4.684 12.3988 4.512 12.1748 4.392C11.9588 4.264 11.6908 4.2 11.3708 4.2C11.0508 4.2 10.7588 4.268 10.4948 4.404C10.2308 4.54 10.0188 4.736 9.85884 4.992C9.70684 5.24 9.63084 5.536 9.63084 5.88L9.60684 6.24C9.60684 6.664 9.67884 7.024 9.82284 7.32C9.96684 7.616 10.1708 7.84 10.4348 7.992C10.6988 8.144 11.0108 8.22 11.3708 8.22C11.6428 8.22 11.8828 8.18 12.0908 8.1C12.3068 8.012 12.4988 7.896 12.6668 7.752C12.8348 7.6 12.9788 7.424 13.0988 7.224L13.8788 7.716C13.6948 7.996 13.4908 8.244 13.2668 8.46C13.0428 8.668 12.7708 8.832 12.4508 8.952C12.1308 9.064 11.7308 9.12 11.2508 9.12C10.7548 9.12 10.3068 8.996 9.90684 8.748C9.51484 8.5 9.20284 8.16 8.97084 7.728C8.74684 7.288 8.63484 6.792 8.63484 6.24C8.63484 6.136 8.63884 6.036 8.64684 5.94C8.65484 5.844 8.66684 5.748 8.68284 5.652C8.76284 5.196 8.92284 4.796 9.16284 4.452C9.40284 4.108 9.71084 3.84 10.0868 3.648C10.4708 3.456 10.8988 3.36 11.3708 3.36C11.8908 3.36 12.3468 3.476 12.7388 3.708C13.1308 3.94 13.4348 4.268 13.6508 4.692C13.8668 5.108 13.9748 5.608 13.9748 6.192C13.9748 6.24 13.9748 6.288 13.9748 6.336C13.9748 6.384 13.9708 6.432 13.9628 6.48H9.24684ZM16.1906 11.64H15.2306V3.48H16.1906V11.64ZM20.8106 6.24C20.8106 6.832 20.6866 7.344 20.4386 7.776C20.1906 8.208 19.8586 8.54 19.4426 8.772C19.0346 9.004 18.5786 9.12 18.0746 9.12C17.6186 9.12 17.2146 9.004 16.8626 8.772C16.5186 8.54 16.2466 8.208 16.0466 7.776C15.8546 7.344 15.7586 6.832 15.7586 6.24C15.7586 5.64 15.8546 5.128 16.0466 4.704C16.2466 4.272 16.5186 3.94 16.8626 3.708C17.2146 3.476 17.6186 3.36 18.0746 3.36C18.5786 3.36 19.0346 3.476 19.4426 3.708C19.8586 3.94 20.1906 4.272 20.4386 4.704C20.6866 5.128 20.8106 5.64 20.8106 6.24ZM19.8386 6.24C19.8386 5.816 19.7506 5.456 19.5746 5.16C19.4066 4.864 19.1786 4.64 18.8906 4.488C18.6106 4.336 18.2986 4.26 17.9546 4.26C17.6746 4.26 17.3986 4.336 17.1266 4.488C16.8546 4.64 16.6306 4.864 16.4546 5.16C16.2786 5.456 16.1906 5.816 16.1906 6.24C16.1906 6.664 16.2786 7.024 16.4546 7.32C16.6306 7.616 16.8546 7.84 17.1266 7.992C17.3986 8.144 17.6746 8.22 17.9546 8.22C18.2986 8.22 18.6106 8.144 18.8906 7.992C19.1786 7.84 19.4066 7.616 19.5746 7.32C19.7506 7.024 19.8386 6.664 19.8386 6.24ZM22.6984 6.12H24.2944C24.6784 6.12 25.0224 6.16 25.3264 6.24C25.6304 6.32 25.8704 6.46 26.0464 6.66C26.2224 6.86 26.3104 7.14 26.3104 7.5C26.3104 7.916 26.1704 8.272 25.8904 8.568C25.6184 8.856 25.1664 9 24.5344 9H22.6984V8.16H24.2944C24.6544 8.16 24.9184 8.084 25.0864 7.932C25.2624 7.78 25.3504 7.596 25.3504 7.38C25.3504 7.268 25.3264 7.168 25.2784 7.08C25.2384 6.992 25.1744 6.912 25.0864 6.84C25.0064 6.768 24.8984 6.716 24.7624 6.684C24.6344 6.644 24.4784 6.624 24.2944 6.624H22.6984V6.12ZM22.6984 6.36V5.796H24.1744C24.3184 5.796 24.4464 5.78 24.5584 5.748C24.6784 5.708 24.7784 5.652 24.8584 5.58C24.9384 5.508 24.9984 5.428 25.0384 5.34C25.0864 5.244 25.1104 5.144 25.1104 5.04C25.1104 4.824 25.0264 4.652 24.8584 4.524C24.6904 4.388 24.4624 4.32 24.1744 4.32H22.6984V3.48H24.1744C24.5184 3.48 24.8304 3.532 25.1104 3.636C25.3984 3.732 25.6304 3.892 25.8064 4.116C25.9824 4.332 26.0704 4.62 26.0704 4.98C26.0704 5.292 25.9824 5.552 25.8064 5.76C25.6304 5.96 25.3984 6.112 25.1104 6.216C24.8304 6.312 24.5184 6.36 24.1744 6.36H22.6984ZM22.1344 3.48H23.0944V9H22.1344V3.48ZM32.1919 4.44L27.6319 9.42L27.6919 8.04L32.2519 3.06L32.1919 4.44ZM28.5919 3.48V8.1L27.6319 9.42V3.48H28.5919ZM32.2519 3.06V9H31.2919V4.38L32.2519 3.06ZM34.5429 6.24C34.5429 6.624 34.6229 6.964 34.7829 7.26C34.9509 7.556 35.1749 7.792 35.4549 7.968C35.7429 8.136 36.0669 8.22 36.4269 8.22C36.7229 8.22 36.9989 8.176 37.2549 8.088C37.5189 7.992 37.7469 7.868 37.9389 7.716C38.1309 7.556 38.2669 7.388 38.3469 7.212V8.412C38.1549 8.636 37.8789 8.812 37.5189 8.94C37.1669 9.06 36.8029 9.12 36.4269 9.12C35.8909 9.12 35.4069 8.996 34.9749 8.748C34.5429 8.5 34.1989 8.16 33.9429 7.728C33.6949 7.288 33.5709 6.792 33.5709 6.24C33.5709 5.68 33.6949 5.184 33.9429 4.752C34.1989 4.32 34.5429 3.98 34.9749 3.732C35.4069 3.484 35.8909 3.36 36.4269 3.36C36.8029 3.36 37.1669 3.424 37.5189 3.552C37.8789 3.672 38.1549 3.844 38.3469 4.068V5.268C38.2669 5.084 38.1309 4.916 37.9389 4.764C37.7469 4.612 37.5189 4.492 37.2549 4.404C36.9989 4.308 36.7229 4.26 36.4269 4.26C36.0669 4.26 35.7429 4.344 35.4549 4.512C35.1749 4.68 34.9509 4.916 34.7829 5.22C34.6229 5.516 34.5429 5.856 34.5429 6.24Z"/>
</mask>
<path d="M1.56 4.8C1.56 5.448 1.704 6.02 1.992 6.516C2.288 7.012 2.672 7.4 3.144 7.68C3.616 7.96 4.128 8.1 4.68 8.1C5.08 8.1 5.444 8.048 5.772 7.944C6.108 7.84 6.412 7.696 6.684 7.512C6.956 7.32 7.188 7.1 7.38 6.852V8.196C7.028 8.508 6.644 8.74 6.228 8.892C5.812 9.044 5.296 9.12 4.68 9.12C4.096 9.12 3.548 9.016 3.036 8.808C2.532 8.592 2.088 8.292 1.704 7.908C1.32 7.516 1.02 7.056 0.804 6.528C0.588 6 0.48 5.424 0.48 4.8C0.48 4.176 0.588 3.6 0.804 3.072C1.02 2.544 1.32 2.088 1.704 1.704C2.088 1.312 2.532 1.012 3.036 0.804C3.548 0.588 4.096 0.48 4.68 0.48C5.296 0.48 5.812 0.556 6.228 0.707999C6.644 0.859999 7.028 1.092 7.38 1.404V2.748C7.188 2.5 6.956 2.284 6.684 2.1C6.412 1.908 6.108 1.76 5.772 1.656C5.444 1.552 5.08 1.5 4.68 1.5C4.128 1.5 3.616 1.64 3.144 1.92C2.672 2.2 2.288 2.588 1.992 3.084C1.704 3.572 1.56 4.144 1.56 4.8ZM9.24684 6.48V5.664H12.9308C12.8988 5.376 12.8188 5.124 12.6908 4.908C12.5708 4.684 12.3988 4.512 12.1748 4.392C11.9588 4.264 11.6908 4.2 11.3708 4.2C11.0508 4.2 10.7588 4.268 10.4948 4.404C10.2308 4.54 10.0188 4.736 9.85884 4.992C9.70684 5.24 9.63084 5.536 9.63084 5.88L9.60684 6.24C9.60684 6.664 9.67884 7.024 9.82284 7.32C9.96684 7.616 10.1708 7.84 10.4348 7.992C10.6988 8.144 11.0108 8.22 11.3708 8.22C11.6428 8.22 11.8828 8.18 12.0908 8.1C12.3068 8.012 12.4988 7.896 12.6668 7.752C12.8348 7.6 12.9788 7.424 13.0988 7.224L13.8788 7.716C13.6948 7.996 13.4908 8.244 13.2668 8.46C13.0428 8.668 12.7708 8.832 12.4508 8.952C12.1308 9.064 11.7308 9.12 11.2508 9.12C10.7548 9.12 10.3068 8.996 9.90684 8.748C9.51484 8.5 9.20284 8.16 8.97084 7.728C8.74684 7.288 8.63484 6.792 8.63484 6.24C8.63484 6.136 8.63884 6.036 8.64684 5.94C8.65484 5.844 8.66684 5.748 8.68284 5.652C8.76284 5.196 8.92284 4.796 9.16284 4.452C9.40284 4.108 9.71084 3.84 10.0868 3.648C10.4708 3.456 10.8988 3.36 11.3708 3.36C11.8908 3.36 12.3468 3.476 12.7388 3.708C13.1308 3.94 13.4348 4.268 13.6508 4.692C13.8668 5.108 13.9748 5.608 13.9748 6.192C13.9748 6.24 13.9748 6.288 13.9748 6.336C13.9748 6.384 13.9708 6.432 13.9628 6.48H9.24684ZM16.1906 11.64H15.2306V3.48H16.1906V11.64ZM20.8106 6.24C20.8106 6.832 20.6866 7.344 20.4386 7.776C20.1906 8.208 19.8586 8.54 19.4426 8.772C19.0346 9.004 18.5786 9.12 18.0746 9.12C17.6186 9.12 17.2146 9.004 16.8626 8.772C16.5186 8.54 16.2466 8.208 16.0466 7.776C15.8546 7.344 15.7586 6.832 15.7586 6.24C15.7586 5.64 15.8546 5.128 16.0466 4.704C16.2466 4.272 16.5186 3.94 16.8626 3.708C17.2146 3.476 17.6186 3.36 18.0746 3.36C18.5786 3.36 19.0346 3.476 19.4426 3.708C19.8586 3.94 20.1906 4.272 20.4386 4.704C20.6866 5.128 20.8106 5.64 20.8106 6.24ZM19.8386 6.24C19.8386 5.816 19.7506 5.456 19.5746 5.16C19.4066 4.864 19.1786 4.64 18.8906 4.488C18.6106 4.336 18.2986 4.26 17.9546 4.26C17.6746 4.26 17.3986 4.336 17.1266 4.488C16.8546 4.64 16.6306 4.864 16.4546 5.16C16.2786 5.456 16.1906 5.816 16.1906 6.24C16.1906 6.664 16.2786 7.024 16.4546 7.32C16.6306 7.616 16.8546 7.84 17.1266 7.992C17.3986 8.144 17.6746 8.22 17.9546 8.22C18.2986 8.22 18.6106 8.144 18.8906 7.992C19.1786 7.84 19.4066 7.616 19.5746 7.32C19.7506 7.024 19.8386 6.664 19.8386 6.24ZM22.6984 6.12H24.2944C24.6784 6.12 25.0224 6.16 25.3264 6.24C25.6304 6.32 25.8704 6.46 26.0464 6.66C26.2224 6.86 26.3104 7.14 26.3104 7.5C26.3104 7.916 26.1704 8.272 25.8904 8.568C25.6184 8.856 25.1664 9 24.5344 9H22.6984V8.16H24.2944C24.6544 8.16 24.9184 8.084 25.0864 7.932C25.2624 7.78 25.3504 7.596 25.3504 7.38C25.3504 7.268 25.3264 7.168 25.2784 7.08C25.2384 6.992 25.1744 6.912 25.0864 6.84C25.0064 6.768 24.8984 6.716 24.7624 6.684C24.6344 6.644 24.4784 6.624 24.2944 6.624H22.6984V6.12ZM22.6984 6.36V5.796H24.1744C24.3184 5.796 24.4464 5.78 24.5584 5.748C24.6784 5.708 24.7784 5.652 24.8584 5.58C24.9384 5.508 24.9984 5.428 25.0384 5.34C25.0864 5.244 25.1104 5.144 25.1104 5.04C25.1104 4.824 25.0264 4.652 24.8584 4.524C24.6904 4.388 24.4624 4.32 24.1744 4.32H22.6984V3.48H24.1744C24.5184 3.48 24.8304 3.532 25.1104 3.636C25.3984 3.732 25.6304 3.892 25.8064 4.116C25.9824 4.332 26.0704 4.62 26.0704 4.98C26.0704 5.292 25.9824 5.552 25.8064 5.76C25.6304 5.96 25.3984 6.112 25.1104 6.216C24.8304 6.312 24.5184 6.36 24.1744 6.36H22.6984ZM22.1344 3.48H23.0944V9H22.1344V3.48ZM32.1919 4.44L27.6319 9.42L27.6919 8.04L32.2519 3.06L32.1919 4.44ZM28.5919 3.48V8.1L27.6319 9.42V3.48H28.5919ZM32.2519 3.06V9H31.2919V4.38L32.2519 3.06ZM34.5429 6.24C34.5429 6.624 34.6229 6.964 34.7829 7.26C34.9509 7.556 35.1749 7.792 35.4549 7.968C35.7429 8.136 36.0669 8.22 36.4269 8.22C36.7229 8.22 36.9989 8.176 37.2549 8.088C37.5189 7.992 37.7469 7.868 37.9389 7.716C38.1309 7.556 38.2669 7.388 38.3469 7.212V8.412C38.1549 8.636 37.8789 8.812 37.5189 8.94C37.1669 9.06 36.8029 9.12 36.4269 9.12C35.8909 9.12 35.4069 8.996 34.9749 8.748C34.5429 8.5 34.1989 8.16 33.9429 7.728C33.6949 7.288 33.5709 6.792 33.5709 6.24C33.5709 5.68 33.6949 5.184 33.9429 4.752C34.1989 4.32 34.5429 3.98 34.9749 3.732C35.4069 3.484 35.8909 3.36 36.4269 3.36C36.8029 3.36 37.1669 3.424 37.5189 3.552C37.8789 3.672 38.1549 3.844 38.3469 4.068V5.268C38.2669 5.084 38.1309 4.916 37.9389 4.764C37.7469 4.612 37.5189 4.492 37.2549 4.404C36.9989 4.308 36.7229 4.26 36.4269 4.26C36.0669 4.26 35.7429 4.344 35.4549 4.512C35.1749 4.68 34.9509 4.916 34.7829 5.22C34.6229 5.516 34.5429 5.856 34.5429 6.24Z" fill="#5D6C7B"/>
<path d="M1.992 6.516L1.12715 7.01817L1.13329 7.02846L1.992 6.516ZM3.144 7.68L3.6542 6.81995L3.144 7.68ZM5.772 7.944L5.47631 6.98869L5.46976 6.99077L5.772 7.944ZM6.684 7.512L7.24431 8.34028L7.25255 8.33471L7.26068 8.32897L6.684 7.512ZM7.38 6.852H8.38V3.92681L6.58928 6.23983L7.38 6.852ZM7.38 8.196L8.04331 8.94435L8.38 8.64592V8.196H7.38ZM6.228 8.892L6.57119 9.83127L6.57119 9.83126L6.228 8.892ZM3.036 8.808L2.64208 9.72715L2.65082 9.73089L2.65962 9.73447L3.036 8.808ZM1.704 7.908L0.989604 8.60782L0.996893 8.61511L1.704 7.908ZM0.804 6.528L1.72955 6.14937L0.804 6.528ZM0.804 3.072L-0.121547 2.69337H-0.121547L0.804 3.072ZM1.704 1.704L2.41114 2.41114L2.41836 2.40378L1.704 1.704ZM3.036 0.804L3.4175 1.7284L3.4247 1.72536L3.036 0.804ZM6.228 0.707999L6.57119 -0.231266H6.57119L6.228 0.707999ZM7.38 1.404H8.38V0.954085L8.04331 0.655653L7.38 1.404ZM7.38 2.748L6.58928 3.36017L8.38 5.67319V2.748H7.38ZM6.684 2.1L6.10732 2.91697L6.11545 2.92271L6.12369 2.92828L6.684 2.1ZM5.772 1.656L5.46975 2.60925L5.47632 2.61129L5.772 1.656ZM3.144 1.92L2.6338 1.05994L2.6338 1.05995L3.144 1.92ZM1.992 3.084L1.13328 2.57154L1.13079 2.57575L1.992 3.084ZM0.56 4.8C0.56 5.60102 0.739617 6.35061 1.12721 7.01814L2.85679 6.01386C2.66838 5.68939 2.56 5.29497 2.56 4.8H0.56ZM1.13329 7.02846C1.51005 7.65978 2.0109 8.17054 2.6338 8.54005L3.6542 6.81995C3.3331 6.62946 3.06595 6.36422 2.85071 6.00354L1.13329 7.02846ZM2.6338 8.54005C3.26116 8.91222 3.94956 9.1 4.68 9.1V7.1C4.30644 7.1 3.97084 7.00778 3.6542 6.81995L2.6338 8.54005ZM4.68 9.1C5.16628 9.1 5.6341 9.03679 6.07424 8.89723L5.46976 6.99077C5.2539 7.05921 4.99372 7.1 4.68 7.1V9.1ZM6.06768 8.89929C6.49099 8.76826 6.88524 8.58318 7.24431 8.34028L6.12369 6.68372C5.93876 6.80882 5.72501 6.91174 5.47632 6.98871L6.06768 8.89929ZM7.26068 8.32897C7.6088 8.08324 7.91431 7.79538 8.17072 7.46417L6.58928 6.23983C6.4617 6.40462 6.3032 6.55676 6.10732 6.69503L7.26068 8.32897ZM6.38 6.852V8.196H8.38V6.852H6.38ZM6.71669 7.44765C6.45261 7.68173 6.17592 7.84637 5.88481 7.95273L6.57119 9.83126C7.11208 9.63363 7.60339 9.33427 8.04331 8.94435L6.71669 7.44765ZM5.88481 7.95273C5.61254 8.05222 5.22128 8.12 4.68 8.12V10.12C5.37072 10.12 6.01146 10.0358 6.57119 9.83127L5.88481 7.95273ZM4.68 8.12C4.2176 8.12 3.79815 8.03825 3.41238 7.88153L2.65962 9.73447C3.29785 9.99375 3.9744 10.12 4.68 10.12V8.12ZM3.42992 7.88885C3.04169 7.72247 2.70426 7.49404 2.41111 7.20089L0.996893 8.61511C1.47174 9.08996 2.02231 9.46153 2.64208 9.72715L3.42992 7.88885ZM2.41836 7.20822C2.12844 6.91226 1.89855 6.5625 1.72955 6.14937L-0.121547 6.90663C0.141446 7.5495 0.511561 8.11974 0.989641 8.60778L2.41836 7.20822ZM1.72955 6.14937C1.56714 5.75238 1.48 5.30639 1.48 4.8H-0.52C-0.52 5.54161 -0.391144 6.24762 -0.121547 6.90663L1.72955 6.14937ZM1.48 4.8C1.48 4.29361 1.56714 3.84762 1.72955 3.45063L-0.121547 2.69337C-0.391144 3.35238 -0.52 4.05839 -0.52 4.8H1.48ZM1.72955 3.45063C1.89785 3.03923 2.12571 2.6965 2.41111 2.41111L0.996893 0.996893C0.514287 1.4795 0.142152 2.04877 -0.121547 2.69337L1.72955 3.45063ZM2.41836 2.40378C2.70836 2.10774 3.03932 1.88445 3.41749 1.72837L2.65451 -0.120374C2.02469 0.139555 1.46764 0.516259 0.989642 1.00422L2.41836 2.40378ZM3.4247 1.72536C3.80746 1.56389 4.2226 1.48 4.68 1.48V-0.52C3.9694 -0.52 3.28854 -0.387886 2.6473 -0.117364L3.4247 1.72536ZM4.68 1.48C5.22128 1.48 5.61254 1.54778 5.88481 1.64726L6.57119 -0.231266C6.01146 -0.435783 5.37072 -0.52 4.68 -0.52V1.48ZM5.88481 1.64726C6.17592 1.75363 6.45261 1.91827 6.71669 2.15235L8.04331 0.655653C7.60339 0.265728 7.11208 -0.0336325 6.57119 -0.231266L5.88481 1.64726ZM6.38 1.404V2.748H8.38V1.404H6.38ZM8.17072 2.13583C7.91085 1.80016 7.59992 1.51228 7.24431 1.27172L6.12369 2.92828C6.31208 3.05572 6.46515 3.19984 6.58928 3.36017L8.17072 2.13583ZM7.26068 1.28303C6.89813 1.02711 6.49835 0.834014 6.06768 0.700714L5.47632 2.61129C5.71765 2.68599 5.92587 2.78889 6.10732 2.91697L7.26068 1.28303ZM6.07424 0.702768C5.6341 0.563211 5.16628 0.5 4.68 0.5V2.5C4.99372 2.5 5.2539 2.54079 5.46976 2.60923L6.07424 0.702768ZM4.68 0.5C3.94956 0.5 3.26116 0.687779 2.6338 1.05994L3.6542 2.78005C3.97084 2.59222 4.30644 2.5 4.68 2.5V0.5ZM2.6338 1.05995C2.0109 1.42946 1.51005 1.94022 1.13329 2.57154L2.85071 3.59646C3.06595 3.23578 3.3331 2.97054 3.6542 2.78005L2.6338 1.05995ZM1.13079 2.57575C0.738423 3.24059 0.56 3.99381 0.56 4.8H2.56C2.56 4.29419 2.66958 3.90341 2.85321 3.59225L1.13079 2.57575ZM9.24684 6.48H8.24684V7.48H9.24684V6.48ZM9.24684 5.664V4.664H8.24684V5.664H9.24684ZM12.9308 5.664V6.664H14.0481L13.9247 5.55357L12.9308 5.664ZM12.6908 4.908L11.8094 5.38022L11.8196 5.39924L11.8306 5.4178L12.6908 4.908ZM12.1748 4.392L11.665 5.25229L11.6836 5.26329L11.7026 5.27348L12.1748 4.392ZM10.4948 4.404L10.9528 5.29297H10.9528L10.4948 4.404ZM9.85884 4.992L9.01081 4.46198L9.00624 4.46944L9.85884 4.992ZM9.63084 5.88L10.6286 5.94652L10.6308 5.9133V5.88H9.63084ZM9.60684 6.24L8.60906 6.17348L8.60684 6.2067V6.24H9.60684ZM9.82284 7.32L8.92361 7.75747V7.75747L9.82284 7.32ZM10.4348 7.992L9.93588 8.85862H9.93588L10.4348 7.992ZM12.0908 8.1L12.4498 9.03335L12.459 9.02981L12.4681 9.02609L12.0908 8.1ZM12.6668 7.752L13.3176 8.51126L13.3278 8.50253L13.3378 8.49354L12.6668 7.752ZM13.0988 7.224L13.6323 6.3782L12.7675 5.83266L12.2414 6.7095L13.0988 7.224ZM13.8788 7.716L14.7146 8.26518L15.2741 7.41374L14.4123 6.8702L13.8788 7.716ZM13.2668 8.46L13.9473 9.19279L13.9542 9.18638L13.961 9.17984L13.2668 8.46ZM12.4508 8.952L12.7812 9.89586L12.7916 9.89221L12.802 9.88833L12.4508 8.952ZM9.90684 8.748L9.37218 9.59311L9.3799 9.5979L9.90684 8.748ZM8.97084 7.728L8.07968 8.18168L8.08466 8.19146L8.08985 8.20113L8.97084 7.728ZM8.64684 5.94L9.64339 6.02305L8.64684 5.94ZM8.68284 5.652L7.69785 5.47919L7.69645 5.4876L8.68284 5.652ZM9.16284 4.452L9.98297 5.02418H9.98297L9.16284 4.452ZM10.0868 3.648L9.63961 2.75354L9.63207 2.75739L10.0868 3.648ZM12.7388 3.708L12.2295 4.56858H12.2295L12.7388 3.708ZM13.6508 4.692L12.7598 5.14594L12.7633 5.15281L13.6508 4.692ZM13.9628 6.48V7.48H14.81L14.9492 6.6444L13.9628 6.48ZM10.2468 6.48V5.664H8.24684V6.48H10.2468ZM9.24684 6.664H12.9308V4.664H9.24684V6.664ZM13.9247 5.55357C13.8795 5.1461 13.7618 4.75376 13.5511 4.3982L11.8306 5.4178C11.8758 5.49424 11.9182 5.60589 11.937 5.77443L13.9247 5.55357ZM13.5723 4.43578C13.3592 4.038 13.0448 3.72362 12.6471 3.51052L11.7026 5.27348C11.7528 5.30038 11.7825 5.33 11.8094 5.38022L13.5723 4.43578ZM12.6846 3.53171C12.2774 3.29036 11.8218 3.2 11.3708 3.2V5.2C11.5599 5.2 11.6403 5.23764 11.665 5.25229L12.6846 3.53171ZM11.3708 3.2C10.9042 3.2 10.4533 3.30049 10.0369 3.51503L10.9528 5.29297C11.0643 5.23551 11.1975 5.2 11.3708 5.2V3.2ZM10.0369 3.51503C9.61019 3.73484 9.26454 4.05609 9.01085 4.462L10.7068 5.522C10.7731 5.41591 10.8515 5.34516 10.9528 5.29297L10.0369 3.51503ZM9.00624 4.46944C8.74149 4.9014 8.63084 5.38561 8.63084 5.88H10.6308C10.6308 5.68639 10.6722 5.5786 10.7114 5.51456L9.00624 4.46944ZM8.63306 5.81348L8.60906 6.17348L10.6046 6.30652L10.6286 5.94652L8.63306 5.81348ZM8.60684 6.24C8.60684 6.77341 8.69704 7.29174 8.92361 7.75747L10.7221 6.88253C10.6606 6.75626 10.6068 6.55459 10.6068 6.24H8.60684ZM8.92361 7.75747C9.14772 8.21814 9.48446 8.59871 9.93588 8.85862L10.9338 7.12538C10.8572 7.08129 10.786 7.01386 10.7221 6.88253L8.92361 7.75747ZM9.93588 8.85862C10.3772 9.1127 10.8677 9.22 11.3708 9.22V7.22C11.154 7.22 11.0205 7.1753 10.9338 7.12538L9.93588 8.85862ZM11.3708 9.22C11.7393 9.22 12.1051 9.16594 12.4498 9.03335L11.7319 7.16665C11.6606 7.19407 11.5464 7.22 11.3708 7.22V9.22ZM12.4681 9.02609C12.7783 8.89975 13.0637 8.72891 13.3176 8.51126L12.0161 6.99274C11.934 7.06309 11.8354 7.12425 11.7135 7.17391L12.4681 9.02609ZM13.3378 8.49354C13.5809 8.27352 13.7872 8.02044 13.9563 7.7385L12.2414 6.7095C12.1705 6.82756 12.0888 6.92648 11.9959 7.01046L13.3378 8.49354ZM12.5653 8.0698L13.3453 8.5618L14.4123 6.8702L13.6323 6.3782L12.5653 8.0698ZM13.0431 7.16682C12.8968 7.38957 12.7394 7.57939 12.5727 7.74016L13.961 9.17984C14.2423 8.90861 14.4929 8.60243 14.7146 8.26518L13.0431 7.16682ZM12.5864 7.72721C12.4685 7.83667 12.3121 7.93602 12.0997 8.01567L12.802 9.88833C13.2296 9.72798 13.6172 9.49933 13.9473 9.19279L12.5864 7.72721ZM12.1205 8.00814C11.9408 8.07104 11.6613 8.12 11.2508 8.12V10.12C11.8004 10.12 12.3209 10.057 12.7812 9.89586L12.1205 8.00814ZM11.2508 8.12C10.9305 8.12 10.6668 8.0426 10.4338 7.8981L9.3799 9.5979C9.94684 9.9494 10.5791 10.12 11.2508 10.12V8.12ZM10.4415 7.90292C10.2034 7.75231 10.0072 7.54411 9.85184 7.25487L8.08985 8.20113C8.39852 8.77589 8.82626 9.24769 9.3722 9.59308L10.4415 7.90292ZM9.86201 7.27432C9.71763 6.99072 9.63484 6.65314 9.63484 6.24H7.63484C7.63484 6.93086 7.77606 7.58528 8.07968 8.18168L9.86201 7.27432ZM9.63484 6.24C9.63484 6.16155 9.63786 6.08935 9.64339 6.02305L7.6503 5.85695C7.63982 5.98265 7.63484 6.11045 7.63484 6.24H9.63484ZM9.64339 6.02305C9.6491 5.95457 9.65769 5.88571 9.66924 5.8164L7.69645 5.4876C7.676 5.61029 7.66059 5.73343 7.6503 5.85695L9.64339 6.02305ZM9.6678 5.8248C9.72526 5.49731 9.83468 5.23674 9.98297 5.02418L8.34272 3.87982C8.01101 4.35526 7.80043 4.89469 7.69789 5.4792L9.6678 5.8248ZM9.98297 5.02418C10.1285 4.81559 10.3107 4.65654 10.5416 4.53861L9.63207 2.75739C9.11101 3.02346 8.67719 3.40041 8.34272 3.87982L9.98297 5.02418ZM10.5341 4.54243C10.7658 4.42654 11.0384 4.36 11.3708 4.36V2.36C10.7593 2.36 10.1759 2.48546 9.63963 2.75357L10.5341 4.54243ZM11.3708 4.36C11.7375 4.36 12.0126 4.44017 12.2295 4.56858L13.2482 2.84742C12.6811 2.51183 12.0442 2.36 11.3708 2.36V4.36ZM12.2295 4.56858C12.4508 4.69954 12.6259 4.883 12.7598 5.14593L14.5419 4.23807C14.2438 3.653 13.8109 3.18046 13.2482 2.84742L12.2295 4.56858ZM12.7633 5.15281C12.8895 5.39569 12.9748 5.72972 12.9748 6.192H14.9748C14.9748 5.48628 14.8442 4.82031 14.5383 4.23118L12.7633 5.15281ZM12.9748 6.192C12.9748 6.19209 12.9748 6.19219 12.9748 6.19228C12.9748 6.19238 12.9748 6.19247 12.9748 6.19256C12.9748 6.19266 12.9748 6.19275 12.9748 6.19284C12.9748 6.19294 12.9748 6.19303 12.9748 6.19312C12.9748 6.19322 12.9748 6.19331 12.9748 6.19341C12.9748 6.1935 12.9748 6.19359 12.9748 6.19369C12.9748 6.19378 12.9748 6.19388 12.9748 6.19397C12.9748 6.19406 12.9748 6.19416 12.9748 6.19425C12.9748 6.19434 12.9748 6.19444 12.9748 6.19453C12.9748 6.19462 12.9748 6.19472 12.9748 6.19481C12.9748 6.19491 12.9748 6.195 12.9748 6.19509C12.9748 6.19519 12.9748 6.19528 12.9748 6.19537C12.9748 6.19547 12.9748 6.19556 12.9748 6.19566C12.9748 6.19575 12.9748 6.19584 12.9748 6.19594C12.9748 6.19603 12.9748 6.19613 12.9748 6.19622C12.9748 6.19631 12.9748 6.19641 12.9748 6.1965C12.9748 6.19659 12.9748 6.19669 12.9748 6.19678C12.9748 6.19687 12.9748 6.19697 12.9748 6.19706C12.9748 6.19716 12.9748 6.19725 12.9748 6.19734C12.9748 6.19744 12.9748 6.19753 12.9748 6.19763C12.9748 6.19772 12.9748 6.19781 12.9748 6.19791C12.9748 6.198 12.9748 6.19809 12.9748 6.19819C12.9748 6.19828 12.9748 6.19837 12.9748 6.19847C12.9748 6.19856 12.9748 6.19866 12.9748 6.19875C12.9748 6.19884 12.9748 6.19894 12.9748 6.19903C12.9748 6.19913 12.9748 6.19922 12.9748 6.19931C12.9748 6.19941 12.9748 6.1995 12.9748 6.19959C12.9748 6.19969 12.9748 6.19978 12.9748 6.19987C12.9748 6.19997 12.9748 6.20006 12.9748 6.20016C12.9748 6.20025 12.9748 6.20034 12.9748 6.20044C12.9748 6.20053 12.9748 6.20062 12.9748 6.20072C12.9748 6.20081 12.9748 6.20091 12.9748 6.201C12.9748 6.20109 12.9748 6.20119 12.9748 6.20128C12.9748 6.20138 12.9748 6.20147 12.9748 6.20156C12.9748 6.20166 12.9748 6.20175 12.9748 6.20184C12.9748 6.20194 12.9748 6.20203 12.9748 6.20212C12.9748 6.20222 12.9748 6.20231 12.9748 6.20241C12.9748 6.2025 12.9748 6.20259 12.9748 6.20269C12.9748 6.20278 12.9748 6.20288 12.9748 6.20297C12.9748 6.20306 12.9748 6.20316 12.9748 6.20325C12.9748 6.20334 12.9748 6.20344 12.9748 6.20353C12.9748 6.20362 12.9748 6.20372 12.9748 6.20381C12.9748 6.20391 12.9748 6.204 12.9748 6.20409C12.9748 6.20419 12.9748 6.20428 12.9748 6.20438C12.9748 6.20447 12.9748 6.20456 12.9748 6.20466C12.9748 6.20475 12.9748 6.20484 12.9748 6.20494C12.9748 6.20503 12.9748 6.20512 12.9748 6.20522C12.9748 6.20531 12.9748 6.20541 12.9748 6.2055C12.9748 6.20559 12.9748 6.20569 12.9748 6.20578C12.9748 6.20587 12.9748 6.20597 12.9748 6.20606C12.9748 6.20616 12.9748 6.20625 12.9748 6.20634C12.9748 6.20644 12.9748 6.20653 12.9748 6.20662C12.9748 6.20672 12.9748 6.20681 12.9748 6.20691C12.9748 6.207 12.9748 6.20709 12.9748 6.20719C12.9748 6.20728 12.9748 6.20737 12.9748 6.20747C12.9748 6.20756 12.9748 6.20766 12.9748 6.20775C12.9748 6.20784 12.9748 6.20794 12.9748 6.20803C12.9748 6.20813 12.9748 6.20822 12.9748 6.20831C12.9748 6.20841 12.9748 6.2085 12.9748 6.20859C12.9748 6.20869 12.9748 6.20878 12.9748 6.20887C12.9748 6.20897 12.9748 6.20906 12.9748 6.20916C12.9748 6.20925 12.9748 6.20934 12.9748 6.20944C12.9748 6.20953 12.9748 6.20963 12.9748 6.20972C12.9748 6.20981 12.9748 6.20991 12.9748 6.21C12.9748 6.21009 12.9748 6.21019 12.9748 6.21028C12.9748 6.21037 12.9748 6.21047 12.9748 6.21056C12.9748 6.21066 12.9748 6.21075 12.9748 6.21084C12.9748 6.21094 12.9748 6.21103 12.9748 6.21112C12.9748 6.21122 12.9748 6.21131 12.9748 6.21141C12.9748 6.2115 12.9748 6.21159 12.9748 6.21169C12.9748 6.21178 12.9748 6.21187 12.9748 6.21197C12.9748 6.21206 12.9748 6.21216 12.9748 6.21225C12.9748 6.21234 12.9748 6.21244 12.9748 6.21253C12.9748 6.21262 12.9748 6.21272 12.9748 6.21281C12.9748 6.21291 12.9748 6.213 12.9748 6.21309C12.9748 6.21319 12.9748 6.21328 12.9748 6.21338C12.9748 6.21347 12.9748 6.21356 12.9748 6.21366C12.9748 6.21375 12.9748 6.21384 12.9748 6.21394C12.9748 6.21403 12.9748 6.21412 12.9748 6.21422C12.9748 6.21431 12.9748 6.21441 12.9748 6.2145C12.9748 6.21459 12.9748 6.21469 12.9748 6.21478C12.9748 6.21488 12.9748 6.21497 12.9748 6.21506C12.9748 6.21516 12.9748 6.21525 12.9748 6.21534C12.9748 6.21544 12.9748 6.21553 12.9748 6.21562C12.9748 6.21572 12.9748 6.21581 12.9748 6.21591C12.9748 6.216 12.9748 6.21609 12.9748 6.21619C12.9748 6.21628 12.9748 6.21637 12.9748 6.21647C12.9748 6.21656 12.9748 6.21666 12.9748 6.21675C12.9748 6.21684 12.9748 6.21694 12.9748 6.21703C12.9748 6.21712 12.9748 6.21722 12.9748 6.21731C12.9748 6.21741 12.9748 6.2175 12.9748 6.21759C12.9748 6.21769 12.9748 6.21778 12.9748 6.21787C12.9748 6.21797 12.9748 6.21806 12.9748 6.21816C12.9748 6.21825 12.9748 6.21834 12.9748 6.21844C12.9748 6.21853 12.9748 6.21863 12.9748 6.21872C12.9748 6.21881 12.9748 6.21891 12.9748 6.219C12.9748 6.21909 12.9748 6.21919 12.9748 6.21928C12.9748 6.21937 12.9748 6.21947 12.9748 6.21956C12.9748 6.21966 12.9748 6.21975 12.9748 6.21984C12.9748 6.21994 12.9748 6.22003 12.9748 6.22013C12.9748 6.22022 12.9748 6.22031 12.9748 6.22041C12.9748 6.2205 12.9748 6.22059 12.9748 6.22069C12.9748 6.22078 12.9748 6.22087 12.9748 6.22097C12.9748 6.22106 12.9748 6.22116 12.9748 6.22125C12.9748 6.22134 12.9748 6.22144 12.9748 6.22153C12.9748 6.22162 12.9748 6.22172 12.9748 6.22181C12.9748 6.22191 12.9748 6.222 12.9748 6.22209C12.9748 6.22219 12.9748 6.22228 12.9748 6.22237C12.9748 6.22247 12.9748 6.22256 12.9748 6.22266C12.9748 6.22275 12.9748 6.22284 12.9748 6.22294C12.9748 6.22303 12.9748 6.22312 12.9748 6.22322C12.9748 6.22331 12.9748 6.22341 12.9748 6.2235C12.9748 6.22359 12.9748 6.22369 12.9748 6.22378C12.9748 6.22388 12.9748 6.22397 12.9748 6.22406C12.9748 6.22416 12.9748 6.22425 12.9748 6.22434C12.9748 6.22444 12.9748 6.22453 12.9748 6.22462C12.9748 6.22472 12.9748 6.22481 12.9748 6.22491C12.9748 6.225 12.9748 6.22509 12.9748 6.22519C12.9748 6.22528 12.9748 6.22538 12.9748 6.22547C12.9748 6.22556 12.9748 6.22566 12.9748 6.22575C12.9748 6.22584 12.9748 6.22594 12.9748 6.22603C12.9748 6.22612 12.9748 6.22622 12.9748 6.22631C12.9748 6.22641 12.9748 6.2265 12.9748 6.22659C12.9748 6.22669 12.9748 6.22678 12.9748 6.22688C12.9748 6.22697 12.9748 6.22706 12.9748 6.22716C12.9748 6.22725 12.9748 6.22734 12.9748 6.22744C12.9748 6.22753 12.9748 6.22762 12.9748 6.22772C12.9748 6.22781 12.9748 6.22791 12.9748 6.228C12.9748 6.22809 12.9748 6.22819 12.9748 6.22828C12.9748 6.22837 12.9748 6.22847 12.9748 6.22856C12.9748 6.22866 12.9748 6.22875 12.9748 6.22884C12.9748 6.22894 12.9748 6.22903 12.9748 6.22913C12.9748 6.22922 12.9748 6.22931 12.9748 6.22941C12.9748 6.2295 12.9748 6.22959 12.9748 6.22969C12.9748 6.22978 12.9748 6.22987 12.9748 6.22997C12.9748 6.23006 12.9748 6.23016 12.9748 6.23025C12.9748 6.23034 12.9748 6.23044 12.9748 6.23053C12.9748 6.23063 12.9748 6.23072 12.9748 6.23081C12.9748 6.23091 12.9748 6.231 12.9748 6.23109C12.9748 6.23119 12.9748 6.23128 12.9748 6.23137C12.9748 6.23147 12.9748 6.23156 12.9748 6.23166C12.9748 6.23175 12.9748 6.23184 12.9748 6.23194C12.9748 6.23203 12.9748 6.23213 12.9748 6.23222C12.9748 6.23231 12.9748 6.23241 12.9748 6.2325C12.9748 6.23259 12.9748 6.23269 12.9748 6.23278C12.9748 6.23287 12.9748 6.23297 12.9748 6.23306C12.9748 6.23316 12.9748 6.23325 12.9748 6.23334C12.9748 6.23344 12.9748 6.23353 12.9748 6.23362C12.9748 6.23372 12.9748 6.23381 12.9748 6.23391C12.9748 6.234 12.9748 6.23409 12.9748 6.23419C12.9748 6.23428 12.9748 6.23438 12.9748 6.23447C12.9748 6.23456 12.9748 6.23466 12.9748 6.23475C12.9748 6.23484 12.9748 6.23494 12.9748 6.23503C12.9748 6.23512 12.9748 6.23522 12.9748 6.23531C12.9748 6.23541 12.9748 6.2355 12.9748 6.23559C12.9748 6.23569 12.9748 6.23578 12.9748 6.23588C12.9748 6.23597 12.9748 6.23606 12.9748 6.23616C12.9748 6.23625 12.9748 6.23634 12.9748 6.23644C12.9748 6.23653 12.9748 6.23662 12.9748 6.23672C12.9748 6.23681 12.9748 6.23691 12.9748 6.237C12.9748 6.23709 12.9748 6.23719 12.9748 6.23728C12.9748 6.23738 12.9748 6.23747 12.9748 6.23756C12.9748 6.23766 12.9748 6.23775 12.9748 6.23784C12.9748 6.23794 12.9748 6.23803 12.9748 6.23812C12.9748 6.23822 12.9748 6.23831 12.9748 6.23841C12.9748 6.2385 12.9748 6.23859 12.9748 6.23869C12.9748 6.23878 12.9748 6.23887 12.9748 6.23897C12.9748 6.23906 12.9748 6.23916 12.9748 6.23925C12.9748 6.23934 12.9748 6.23944 12.9748 6.23953C12.9748 6.23962 12.9748 6.23972 12.9748 6.23981C12.9748 6.23991 12.9748 6.24 12.9748 6.24009C12.9748 6.24019 12.9748 6.24028 12.9748 6.24037C12.9748 6.24047 12.9748 6.24056 12.9748 6.24066C12.9748 6.24075 12.9748 6.24084 12.9748 6.24094C12.9748 6.24103 12.9748 6.24113 12.9748 6.24122C12.9748 6.24131 12.9748 6.24141 12.9748 6.2415C12.9748 6.24159 12.9748 6.24169 12.9748 6.24178C12.9748 6.24187 12.9748 6.24197 12.9748 6.24206C12.9748 6.24216 12.9748 6.24225 12.9748 6.24234C12.9748 6.24244 12.9748 6.24253 12.9748 6.24263C12.9748 6.24272 12.9748 6.24281 12.9748 6.24291C12.9748 6.243 12.9748 6.24309 12.9748 6.24319C12.9748 6.24328 12.9748 6.24337 12.9748 6.24347C12.9748 6.24356 12.9748 6.24366 12.9748 6.24375C12.9748 6.24384 12.9748 6.24394 12.9748 6.24403C12.9748 6.24412 12.9748 6.24422 12.9748 6.24431C12.9748 6.24441 12.9748 6.2445 12.9748 6.24459C12.9748 6.24469 12.9748 6.24478 12.9748 6.24487C12.9748 6.24497 12.9748 6.24506 12.9748 6.24516C12.9748 6.24525 12.9748 6.24534 12.9748 6.24544C12.9748 6.24553 12.9748 6.24562 12.9748 6.24572C12.9748 6.24581 12.9748 6.24591 12.9748 6.246C12.9748 6.24609 12.9748 6.24619 12.9748 6.24628C12.9748 6.24638 12.9748 6.24647 12.9748 6.24656C12.9748 6.24666 12.9748 6.24675 12.9748 6.24684C12.9748 6.24694 12.9748 6.24703 12.9748 6.24712C12.9748 6.24722 12.9748 6.24731 12.9748 6.24741C12.9748 6.2475 12.9748 6.24759 12.9748 6.24769C12.9748 6.24778 12.9748 6.24788 12.9748 6.24797C12.9748 6.24806 12.9748 6.24816 12.9748 6.24825C12.9748 6.24834 12.9748 6.24844 12.9748 6.24853C12.9748 6.24862 12.9748 6.24872 12.9748 6.24881C12.9748 6.24891 12.9748 6.249 12.9748 6.24909C12.9748 6.24919 12.9748 6.24928 12.9748 6.24937C12.9748 6.24947 12.9748 6.24956 12.9748 6.24966C12.9748 6.24975 12.9748 6.24984 12.9748 6.24994C12.9748 6.25003 12.9748 6.25012 12.9748 6.25022C12.9748 6.25031 12.9748 6.25041 12.9748 6.2505C12.9748 6.25059 12.9748 6.25069 12.9748 6.25078C12.9748 6.25087 12.9748 6.25097 12.9748 6.25106C12.9748 6.25116 12.9748 6.25125 12.9748 6.25134C12.9748 6.25144 12.9748 6.25153 12.9748 6.25163C12.9748 6.25172 12.9748 6.25181 12.9748 6.25191C12.9748 6.252 12.9748 6.25209 12.9748 6.25219C12.9748 6.25228 12.9748 6.25237 12.9748 6.25247C12.9748 6.25256 12.9748 6.25266 12.9748 6.25275C12.9748 6.25284 12.9748 6.25294 12.9748 6.25303C12.9748 6.25313 12.9748 6.25322 12.9748 6.25331C12.9748 6.25341 12.9748 6.2535 12.9748 6.25359C12.9748 6.25369 12.9748 6.25378 12.9748 6.25387C12.9748 6.25397 12.9748 6.25406 12.9748 6.25416C12.9748 6.25425 12.9748 6.25434 12.9748 6.25444C12.9748 6.25453 12.9748 6.25462 12.9748 6.25472C12.9748 6.25481 12.9748 6.25491 12.9748 6.255C12.9748 6.25509 12.9748 6.25519 12.9748 6.25528C12.9748 6.25537 12.9748 6.25547 12.9748 6.25556C12.9748 6.25566 12.9748 6.25575 12.9748 6.25584C12.9748 6.25594 12.9748 6.25603 12.9748 6.25612C12.9748 6.25622 12.9748 6.25631 12.9748 6.25641C12.9748 6.2565 12.9748 6.25659 12.9748 6.25669C12.9748 6.25678 12.9748 6.25688 12.9748 6.25697C12.9748 6.25706 12.9748 6.25716 12.9748 6.25725C12.9748 6.25734 12.9748 6.25744 12.9748 6.25753C12.9748 6.25762 12.9748 6.25772 12.9748 6.25781C12.9748 6.25791 12.9748 6.258 12.9748 6.25809C12.9748 6.25819 12.9748 6.25828 12.9748 6.25838C12.9748 6.25847 12.9748 6.25856 12.9748 6.25866C12.9748 6.25875 12.9748 6.25884 12.9748 6.25894C12.9748 6.25903 12.9748 6.25912 12.9748 6.25922C12.9748 6.25931 12.9748 6.25941 12.9748 6.2595C12.9748 6.25959 12.9748 6.25969 12.9748 6.25978C12.9748 6.25988 12.9748 6.25997 12.9748 6.26006C12.9748 6.26016 12.9748 6.26025 12.9748 6.26034C12.9748 6.26044 12.9748 6.26053 12.9748 6.26062C12.9748 6.26072 12.9748 6.26081 12.9748 6.26091C12.9748 6.261 12.9748 6.26109 12.9748 6.26119C12.9748 6.26128 12.9748 6.26137 12.9748 6.26147C12.9748 6.26156 12.9748 6.26166 12.9748 6.26175C12.9748 6.26184 12.9748 6.26194 12.9748 6.26203C12.9748 6.26213 12.9748 6.26222 12.9748 6.26231C12.9748 6.26241 12.9748 6.2625 12.9748 6.26259C12.9748 6.26269 12.9748 6.26278 12.9748 6.26287C12.9748 6.26297 12.9748 6.26306 12.9748 6.26316C12.9748 6.26325 12.9748 6.26334 12.9748 6.26344C12.9748 6.26353 12.9748 6.26363 12.9748 6.26372C12.9748 6.26381 12.9748 6.26391 12.9748 6.264C12.9748 6.26409 12.9748 6.26419 12.9748 6.26428C12.9748 6.26437 12.9748 6.26447 12.9748 6.26456C12.9748 6.26466 12.9748 6.26475 12.9748 6.26484C12.9748 6.26494 12.9748 6.26503 12.9748 6.26513C12.9748 6.26522 12.9748 6.26531 12.9748 6.26541C12.9748 6.2655 12.9748 6.26559 12.9748 6.26569C12.9748 6.26578 12.9748 6.26587 12.9748 6.26597C12.9748 6.26606 12.9748 6.26616 12.9748 6.26625C12.9748 6.26634 12.9748 6.26644 12.9748 6.26653C12.9748 6.26662 12.9748 6.26672 12.9748 6.26681C12.9748 6.26691 12.9748 6.267 12.9748 6.26709C12.9748 6.26719 12.9748 6.26728 12.9748 6.26737C12.9748 6.26747 12.9748 6.26756 12.9748 6.26766C12.9748 6.26775 12.9748 6.26784 12.9748 6.26794C12.9748 6.26803 12.9748 6.26812 12.9748 6.26822C12.9748 6.26831 12.9748 6.26841 12.9748 6.2685C12.9748 6.26859 12.9748 6.26869 12.9748 6.26878C12.9748 6.26888 12.9748 6.26897 12.9748 6.26906C12.9748 6.26916 12.9748 6.26925 12.9748 6.26934C12.9748 6.26944 12.9748 6.26953 12.9748 6.26962C12.9748 6.26972 12.9748 6.26981 12.9748 6.26991C12.9748 6.27 12.9748 6.27009 12.9748 6.27019C12.9748 6.27028 12.9748 6.27038 12.9748 6.27047C12.9748 6.27056 12.9748 6.27066 12.9748 6.27075C12.9748 6.27084 12.9748 6.27094 12.9748 6.27103C12.9748 6.27112 12.9748 6.27122 12.9748 6.27131C12.9748 6.27141 12.9748 6.2715 12.9748 6.27159C12.9748 6.27169 12.9748 6.27178 12.9748 6.27187C12.9748 6.27197 12.9748 6.27206 12.9748 6.27216C12.9748 6.27225 12.9748 6.27234 12.9748 6.27244C12.9748 6.27253 12.9748 6.27262 12.9748 6.27272C12.9748 6.27281 12.9748 6.27291 12.9748 6.273C12.9748 6.27309 12.9748 6.27319 12.9748 6.27328C12.9748 6.27337 12.9748 6.27347 12.9748 6.27356C12.9748 6.27366 12.9748 6.27375 12.9748 6.27384C12.9748 6.27394 12.9748 6.27403 12.9748 6.27413C12.9748 6.27422 12.9748 6.27431 12.9748 6.27441C12.9748 6.2745 12.9748 6.27459 12.9748 6.27469C12.9748 6.27478 12.9748 6.27487 12.9748 6.27497C12.9748 6.27506 12.9748 6.27516 12.9748 6.27525C12.9748 6.27534 12.9748 6.27544 12.9748 6.27553C12.9748 6.27563 12.9748 6.27572 12.9748 6.27581C12.9748 6.27591 12.9748 6.276 12.9748 6.27609C12.9748 6.27619 12.9748 6.27628 12.9748 6.27637C12.9748 6.27647 12.9748 6.27656 12.9748 6.27666C12.9748 6.27675 12.9748 6.27684 12.9748 6.27694C12.9748 6.27703 12.9748 6.27712 12.9748 6.27722C12.9748 6.27731 12.9748 6.27741 12.9748 6.2775C12.9748 6.27759 12.9748 6.27769 12.9748 6.27778C12.9748 6.27787 12.9748 6.27797 12.9748 6.27806C12.9748 6.27816 12.9748 6.27825 12.9748 6.27834C12.9748 6.27844 12.9748 6.27853 12.9748 6.27862C12.9748 6.27872 12.9748 6.27881 12.9748 6.27891C12.9748 6.279 12.9748 6.27909 12.9748 6.27919C12.9748 6.27928 12.9748 6.27938 12.9748 6.27947C12.9748 6.27956 12.9748 6.27966 12.9748 6.27975C12.9748 6.27984 12.9748 6.27994 12.9748 6.28003C12.9748 6.28012 12.9748 6.28022 12.9748 6.28031C12.9748 6.28041 12.9748 6.2805 12.9748 6.28059C12.9748 6.28069 12.9748 6.28078 12.9748 6.28088C12.9748 6.28097 12.9748 6.28106 12.9748 6.28116C12.9748 6.28125 12.9748 6.28134 12.9748 6.28144C12.9748 6.28153 12.9748 6.28162 12.9748 6.28172C12.9748 6.28181 12.9748 6.28191 12.9748 6.282C12.9748 6.28209 12.9748 6.28219 12.9748 6.28228C12.9748 6.28237 12.9748 6.28247 12.9748 6.28256C12.9748 6.28266 12.9748 6.28275 12.9748 6.28284C12.9748 6.28294 12.9748 6.28303 12.9748 6.28312C12.9748 6.28322 12.9748 6.28331 12.9748 6.28341C12.9748 6.2835 12.9748 6.28359 12.9748 6.28369C12.9748 6.28378 12.9748 6.28387 12.9748 6.28397C12.9748 6.28406 12.9748 6.28416 12.9748 6.28425C12.9748 6.28434 12.9748 6.28444 12.9748 6.28453C12.9748 6.28463 12.9748 6.28472 12.9748 6.28481C12.9748 6.28491 12.9748 6.285 12.9748 6.28509C12.9748 6.28519 12.9748 6.28528 12.9748 6.28537C12.9748 6.28547 12.9748 6.28556 12.9748 6.28566C12.9748 6.28575 12.9748 6.28584 12.9748 6.28594C12.9748 6.28603 12.9748 6.28613 12.9748 6.28622C12.9748 6.28631 12.9748 6.28641 12.9748 6.2865C12.9748 6.28659 12.9748 6.28669 12.9748 6.28678C12.9748 6.28687 12.9748 6.28697 12.9748 6.28706C12.9748 6.28716 12.9748 6.28725 12.9748 6.28734C12.9748 6.28744 12.9748 6.28753 12.9748 6.28762C12.9748 6.28772 12.9748 6.28781 12.9748 6.28791C12.9748 6.288 12.9748 6.28809 12.9748 6.28819C12.9748 6.28828 12.9748 6.28837 12.9748 6.28847C12.9748 6.28856 12.9748 6.28866 12.9748 6.28875C12.9748 6.28884 12.9748 6.28894 12.9748 6.28903C12.9748 6.28912 12.9748 6.28922 12.9748 6.28931C12.9748 6.28941 12.9748 6.2895 12.9748 6.28959C12.9748 6.28969 12.9748 6.28978 12.9748 6.28988C12.9748 6.28997 12.9748 6.29006 12.9748 6.29016C12.9748 6.29025 12.9748 6.29034 12.9748 6.29044C12.9748 6.29053 12.9748 6.29062 12.9748 6.29072C12.9748 6.29081 12.9748 6.29091 12.9748 6.291C12.9748 6.29109 12.9748 6.29119 12.9748 6.29128C12.9748 6.29138 12.9748 6.29147 12.9748 6.29156C12.9748 6.29166 12.9748 6.29175 12.9748 6.29184C12.9748 6.29194 12.9748 6.29203 12.9748 6.29212C12.9748 6.29222 12.9748 6.29231 12.9748 6.29241C12.9748 6.2925 12.9748 6.29259 12.9748 6.29269C12.9748 6.29278 12.9748 6.29287 12.9748 6.29297C12.9748 6.29306 12.9748 6.29316 12.9748 6.29325C12.9748 6.29334 12.9748 6.29344 12.9748 6.29353C12.9748 6.29362 12.9748 6.29372 12.9748 6.29381C12.9748 6.29391 12.9748 6.294 12.9748 6.29409C12.9748 6.29419 12.9748 6.29428 12.9748 6.29437C12.9748 6.29447 12.9748 6.29456 12.9748 6.29466C12.9748 6.29475 12.9748 6.29484 12.9748 6.29494C12.9748 6.29503 12.9748 6.29513 12.9748 6.29522C12.9748 6.29531 12.9748 6.29541 12.9748 6.2955C12.9748 6.29559 12.9748 6.29569 12.9748 6.29578C12.9748 6.29587 12.9748 6.29597 12.9748 6.29606C12.9748 6.29616 12.9748 6.29625 12.9748 6.29634C12.9748 6.29644 12.9748 6.29653 12.9748 6.29663C12.9748 6.29672 12.9748 6.29681 12.9748 6.29691C12.9748 6.297 12.9748 6.29709 12.9748 6.29719C12.9748 6.29728 12.9748 6.29737 12.9748 6.29747C12.9748 6.29756 12.9748 6.29766 12.9748 6.29775C12.9748 6.29784 12.9748 6.29794 12.9748 6.29803C12.9748 6.29813 12.9748 6.29822 12.9748 6.29831C12.9748 6.29841 12.9748 6.2985 12.9748 6.29859C12.9748 6.29869 12.9748 6.29878 12.9748 6.29887C12.9748 6.29897 12.9748 6.29906 12.9748 6.29916C12.9748 6.29925 12.9748 6.29934 12.9748 6.29944C12.9748 6.29953 12.9748 6.29962 12.9748 6.29972C12.9748 6.29981 12.9748 6.29991 12.9748 6.3C12.9748 6.30009 12.9748 6.30019 12.9748 6.30028C12.9748 6.30037 12.9748 6.30047 12.9748 6.30056C12.9748 6.30066 12.9748 6.30075 12.9748 6.30084C12.9748 6.30094 12.9748 6.30103 12.9748 6.30112C12.9748 6.30122 12.9748 6.30131 12.9748 6.30141C12.9748 6.3015 12.9748 6.30159 12.9748 6.30169C12.9748 6.30178 12.9748 6.30188 12.9748 6.30197C12.9748 6.30206 12.9748 6.30216 12.9748 6.30225C12.9748 6.30234 12.9748 6.30244 12.9748 6.30253C12.9748 6.30262 12.9748 6.30272 12.9748 6.30281C12.9748 6.30291 12.9748 6.303 12.9748 6.30309C12.9748 6.30319 12.9748 6.30328 12.9748 6.30338C12.9748 6.30347 12.9748 6.30356 12.9748 6.30366C12.9748 6.30375 12.9748 6.30384 12.9748 6.30394C12.9748 6.30403 12.9748 6.30412 12.9748 6.30422C12.9748 6.30431 12.9748 6.30441 12.9748 6.3045C12.9748 6.30459 12.9748 6.30469 12.9748 6.30478C12.9748 6.30487 12.9748 6.30497 12.9748 6.30506C12.9748 6.30516 12.9748 6.30525 12.9748 6.30534C12.9748 6.30544 12.9748 6.30553 12.9748 6.30562C12.9748 6.30572 12.9748 6.30581 12.9748 6.30591C12.9748 6.306 12.9748 6.30609 12.9748 6.30619C12.9748 6.30628 12.9748 6.30637 12.9748 6.30647C12.9748 6.30656 12.9748 6.30666 12.9748 6.30675C12.9748 6.30684 12.9748 6.30694 12.9748 6.30703C12.9748 6.30713 12.9748 6.30722 12.9748 6.30731C12.9748 6.30741 12.9748 6.3075 12.9748 6.30759C12.9748 6.30769 12.9748 6.30778 12.9748 6.30787C12.9748 6.30797 12.9748 6.30806 12.9748 6.30816C12.9748 6.30825 12.9748 6.30834 12.9748 6.30844C12.9748 6.30853 12.9748 6.30863 12.9748 6.30872C12.9748 6.30881 12.9748 6.30891 12.9748 6.309C12.9748 6.30909 12.9748 6.30919 12.9748 6.30928C12.9748 6.30937 12.9748 6.30947 12.9748 6.30956C12.9748 6.30966 12.9748 6.30975 12.9748 6.30984C12.9748 6.30994 12.9748 6.31003 12.9748 6.31012C12.9748 6.31022 12.9748 6.31031 12.9748 6.31041C12.9748 6.3105 12.9748 6.31059 12.9748 6.31069C12.9748 6.31078 12.9748 6.31087 12.9748 6.31097C12.9748 6.31106 12.9748 6.31116 12.9748 6.31125C12.9748 6.31134 12.9748 6.31144 12.9748 6.31153C12.9748 6.31162 12.9748 6.31172 12.9748 6.31181C12.9748 6.31191 12.9748 6.312 12.9748 6.31209C12.9748 6.31219 12.9748 6.31228 12.9748 6.31238C12.9748 6.31247 12.9748 6.31256 12.9748 6.31266C12.9748 6.31275 12.9748 6.31284 12.9748 6.31294C12.9748 6.31303 12.9748 6.31312 12.9748 6.31322C12.9748 6.31331 12.9748 6.31341 12.9748 6.3135C12.9748 6.31359 12.9748 6.31369 12.9748 6.31378C12.9748 6.31388 12.9748 6.31397 12.9748 6.31406C12.9748 6.31416 12.9748 6.31425 12.9748 6.31434C12.9748 6.31444 12.9748 6.31453 12.9748 6.31462C12.9748 6.31472 12.9748 6.31481 12.9748 6.31491C12.9748 6.315 12.9748 6.31509 12.9748 6.31519C12.9748 6.31528 12.9748 6.31537 12.9748 6.31547C12.9748 6.31556 12.9748 6.31566 12.9748 6.31575C12.9748 6.31584 12.9748 6.31594 12.9748 6.31603C12.9748 6.31612 12.9748 6.31622 12.9748 6.31631C12.9748 6.31641 12.9748 6.3165 12.9748 6.31659C12.9748 6.31669 12.9748 6.31678 12.9748 6.31687C12.9748 6.31697 12.9748 6.31706 12.9748 6.31716C12.9748 6.31725 12.9748 6.31734 12.9748 6.31744C12.9748 6.31753 12.9748 6.31763 12.9748 6.31772C12.9748 6.31781 12.9748 6.31791 12.9748 6.318C12.9748 6.31809 12.9748 6.31819 12.9748 6.31828C12.9748 6.31837 12.9748 6.31847 12.9748 6.31856C12.9748 6.31866 12.9748 6.31875 12.9748 6.31884C12.9748 6.31894 12.9748 6.31903 12.9748 6.31913C12.9748 6.31922 12.9748 6.31931 12.9748 6.31941C12.9748 6.3195 12.9748 6.31959 12.9748 6.31969C12.9748 6.31978 12.9748 6.31987 12.9748 6.31997C12.9748 6.32006 12.9748 6.32016 12.9748 6.32025C12.9748 6.32034 12.9748 6.32044 12.9748 6.32053C12.9748 6.32062 12.9748 6.32072 12.9748 6.32081C12.9748 6.32091 12.9748 6.321 12.9748 6.32109C12.9748 6.32119 12.9748 6.32128 12.9748 6.32137C12.9748 6.32147 12.9748 6.32156 12.9748 6.32166C12.9748 6.32175 12.9748 6.32184 12.9748 6.32194C12.9748 6.32203 12.9748 6.32212 12.9748 6.32222C12.9748 6.32231 12.9748 6.32241 12.9748 6.3225C12.9748 6.32259 12.9748 6.32269 12.9748 6.32278C12.9748 6.32288 12.9748 6.32297 12.9748 6.32306C12.9748 6.32316 12.9748 6.32325 12.9748 6.32334C12.9748 6.32344 12.9748 6.32353 12.9748 6.32362C12.9748 6.32372 12.9748 6.32381 12.9748 6.32391C12.9748 6.324 12.9748 6.32409 12.9748 6.32419C12.9748 6.32428 12.9748 6.32438 12.9748 6.32447C12.9748 6.32456 12.9748 6.32466 12.9748 6.32475C12.9748 6.32484 12.9748 6.32494 12.9748 6.32503C12.9748 6.32512 12.9748 6.32522 12.9748 6.32531C12.9748 6.32541 12.9748 6.3255 12.9748 6.32559C12.9748 6.32569 12.9748 6.32578 12.9748 6.32587C12.9748 6.32597 12.9748 6.32606 12.9748 6.32616C12.9748 6.32625 12.9748 6.32634 12.9748 6.32644C12.9748 6.32653 12.9748 6.32662 12.9748 6.32672C12.9748 6.32681 12.9748 6.32691 12.9748 6.327C12.9748 6.32709 12.9748 6.32719 12.9748 6.32728C12.9748 6.32737 12.9748 6.32747 12.9748 6.32756C12.9748 6.32766 12.9748 6.32775 12.9748 6.32784C12.9748 6.32794 12.9748 6.32803 12.9748 6.32812C12.9748 6.32822 12.9748 6.32831 12.9748 6.32841C12.9748 6.3285 12.9748 6.32859 12.9748 6.32869C12.9748 6.32878 12.9748 6.32887 12.9748 6.32897C12.9748 6.32906 12.9748 6.32916 12.9748 6.32925C12.9748 6.32934 12.9748 6.32944 12.9748 6.32953C12.9748 6.32963 12.9748 6.32972 12.9748 6.32981C12.9748 6.32991 12.9748 6.33 12.9748 6.33009C12.9748 6.33019 12.9748 6.33028 12.9748 6.33037C12.9748 6.33047 12.9748 6.33056 12.9748 6.33066C12.9748 6.33075 12.9748 6.33084 12.9748 6.33094C12.9748 6.33103 12.9748 6.33113 12.9748 6.33122C12.9748 6.33131 12.9748 6.33141 12.9748 6.3315C12.9748 6.33159 12.9748 6.33169 12.9748 6.33178C12.9748 6.33187 12.9748 6.33197 12.9748 6.33206C12.9748 6.33216 12.9748 6.33225 12.9748 6.33234C12.9748 6.33244 12.9748 6.33253 12.9748 6.33262C12.9748 6.33272 12.9748 6.33281 12.9748 6.33291C12.9748 6.333 12.9748 6.33309 12.9748 6.33319C12.9748 6.33328 12.9748 6.33337 12.9748 6.33347C12.9748 6.33356 12.9748 6.33366 12.9748 6.33375C12.9748 6.33384 12.9748 6.33394 12.9748 6.33403C12.9748 6.33412 12.9748 6.33422 12.9748 6.33431C12.9748 6.33441 12.9748 6.3345 12.9748 6.33459C12.9748 6.33469 12.9748 6.33478 12.9748 6.33488C12.9748 6.33497 12.9748 6.33506 12.9748 6.33516C12.9748 6.33525 12.9748 6.33534 12.9748 6.33544C12.9748 6.33553 12.9748 6.33562 12.9748 6.33572C12.9748 6.33581 12.9748 6.33591 12.9748 6.336H14.9748C14.9748 6.33591 14.9748 6.33581 14.9748 6.33572C14.9748 6.33562 14.9748 6.33553 14.9748 6.33544C14.9748 6.33534 14.9748 6.33525 14.9748 6.33516C14.9748 6.33506 14.9748 6.33497 14.9748 6.33488C14.9748 6.33478 14.9748 6.33469 14.9748 6.33459C14.9748 6.3345 14.9748 6.33441 14.9748 6.33431C14.9748 6.33422 14.9748 6.33412 14.9748 6.33403C14.9748 6.33394 14.9748 6.33384 14.9748 6.33375C14.9748 6.33366 14.9748 6.33356 14.9748 6.33347C14.9748 6.33337 14.9748 6.33328 14.9748 6.33319C14.9748 6.33309 14.9748 6.333 14.9748 6.33291C14.9748 6.33281 14.9748 6.33272 14.9748 6.33262C14.9748 6.33253 14.9748 6.33244 14.9748 6.33234C14.9748 6.33225 14.9748 6.33216 14.9748 6.33206C14.9748 6.33197 14.9748 6.33187 14.9748 6.33178C14.9748 6.33169 14.9748 6.33159 14.9748 6.3315C14.9748 6.33141 14.9748 6.33131 14.9748 6.33122C14.9748 6.33113 14.9748 6.33103 14.9748 6.33094C14.9748 6.33084 14.9748 6.33075 14.9748 6.33066C14.9748 6.33056 14.9748 6.33047 14.9748 6.33037C14.9748 6.33028 14.9748 6.33019 14.9748 6.33009C14.9748 6.33 14.9748 6.32991 14.9748 6.32981C14.9748 6.32972 14.9748 6.32963 14.9748 6.32953C14.9748 6.32944 14.9748 6.32934 14.9748 6.32925C14.9748 6.32916 14.9748 6.32906 14.9748 6.32897C14.9748 6.32887 14.9748 6.32878 14.9748 6.32869C14.9748 6.32859 14.9748 6.3285 14.9748 6.32841C14.9748 6.32831 14.9748 6.32822 14.9748 6.32812C14.9748 6.32803 14.9748 6.32794 14.9748 6.32784C14.9748 6.32775 14.9748 6.32766 14.9748 6.32756C14.9748 6.32747 14.9748 6.32737 14.9748 6.32728C14.9748 6.32719 14.9748 6.32709 14.9748 6.327C14.9748 6.32691 14.9748 6.32681 14.9748 6.32672C14.9748 6.32662 14.9748 6.32653 14.9748 6.32644C14.9748 6.32634 14.9748 6.32625 14.9748 6.32616C14.9748 6.32606 14.9748 6.32597 14.9748 6.32587C14.9748 6.32578 14.9748 6.32569 14.9748 6.32559C14.9748 6.3255 14.9748 6.32541 14.9748 6.32531C14.9748 6.32522 14.9748 6.32512 14.9748 6.32503C14.9748 6.32494 14.9748 6.32484 14.9748 6.32475C14.9748 6.32466 14.9748 6.32456 14.9748 6.32447C14.9748 6.32438 14.9748 6.32428 14.9748 6.32419C14.9748 6.32409 14.9748 6.324 14.9748 6.32391C14.9748 6.32381 14.9748 6.32372 14.9748 6.32362C14.9748 6.32353 14.9748 6.32344 14.9748 6.32334C14.9748 6.32325 14.9748 6.32316 14.9748 6.32306C14.9748 6.32297 14.9748 6.32288 14.9748 6.32278C14.9748 6.32269 14.9748 6.32259 14.9748 6.3225C14.9748 6.32241 14.9748 6.32231 14.9748 6.32222C14.9748 6.32212 14.9748 6.32203 14.9748 6.32194C14.9748 6.32184 14.9748 6.32175 14.9748 6.32166C14.9748 6.32156 14.9748 6.32147 14.9748 6.32137C14.9748 6.32128 14.9748 6.32119 14.9748 6.32109C14.9748 6.321 14.9748 6.32091 14.9748 6.32081C14.9748 6.32072 14.9748 6.32062 14.9748 6.32053C14.9748 6.32044 14.9748 6.32034 14.9748 6.32025C14.9748 6.32016 14.9748 6.32006 14.9748 6.31997C14.9748 6.31987 14.9748 6.31978 14.9748 6.31969C14.9748 6.31959 14.9748 6.3195 14.9748 6.31941C14.9748 6.31931 14.9748 6.31922 14.9748 6.31913C14.9748 6.31903 14.9748 6.31894 14.9748 6.31884C14.9748 6.31875 14.9748 6.31866 14.9748 6.31856C14.9748 6.31847 14.9748 6.31837 14.9748 6.31828C14.9748 6.31819 14.9748 6.31809 14.9748 6.318C14.9748 6.31791 14.9748 6.31781 14.9748 6.31772C14.9748 6.31763 14.9748 6.31753 14.9748 6.31744C14.9748 6.31734 14.9748 6.31725 14.9748 6.31716C14.9748 6.31706 14.9748 6.31697 14.9748 6.31687C14.9748 6.31678 14.9748 6.31669 14.9748 6.31659C14.9748 6.3165 14.9748 6.31641 14.9748 6.31631C14.9748 6.31622 14.9748 6.31612 14.9748 6.31603C14.9748 6.31594 14.9748 6.31584 14.9748 6.31575C14.9748 6.31566 14.9748 6.31556 14.9748 6.31547C14.9748 6.31537 14.9748 6.31528 14.9748 6.31519C14.9748 6.31509 14.9748 6.315 14.9748 6.31491C14.9748 6.31481 14.9748 6.31472 14.9748 6.31462C14.9748 6.31453 14.9748 6.31444 14.9748 6.31434C14.9748 6.31425 14.9748 6.31416 14.9748 6.31406C14.9748 6.31397 14.9748 6.31388 14.9748 6.31378C14.9748 6.31369 14.9748 6.31359 14.9748 6.3135C14.9748 6.31341 14.9748 6.31331 14.9748 6.31322C14.9748 6.31312 14.9748 6.31303 14.9748 6.31294C14.9748 6.31284 14.9748 6.31275 14.9748 6.31266C14.9748 6.31256 14.9748 6.31247 14.9748 6.31238C14.9748 6.31228 14.9748 6.31219 14.9748 6.31209C14.9748 6.312 14.9748 6.31191 14.9748 6.31181C14.9748 6.31172 14.9748 6.31162 14.9748 6.31153C14.9748 6.31144 14.9748 6.31134 14.9748 6.31125C14.9748 6.31116 14.9748 6.31106 14.9748 6.31097C14.9748 6.31087 14.9748 6.31078 14.9748 6.31069C14.9748 6.31059 14.9748 6.3105 14.9748 6.31041C14.9748 6.31031 14.9748 6.31022 14.9748 6.31012C14.9748 6.31003 14.9748 6.30994 14.9748 6.30984C14.9748 6.30975 14.9748 6.30966 14.9748 6.30956C14.9748 6.30947 14.9748 6.30937 14.9748 6.30928C14.9748 6.30919 14.9748 6.30909 14.9748 6.309C14.9748 6.30891 14.9748 6.30881 14.9748 6.30872C14.9748 6.30863 14.9748 6.30853 14.9748 6.30844C14.9748 6.30834 14.9748 6.30825 14.9748 6.30816C14.9748 6.30806 14.9748 6.30797 14.9748 6.30787C14.9748 6.30778 14.9748 6.30769 14.9748 6.30759C14.9748 6.3075 14.9748 6.30741 14.9748 6.30731C14.9748 6.30722 14.9748 6.30713 14.9748 6.30703C14.9748 6.30694 14.9748 6.30684 14.9748 6.30675C14.9748 6.30666 14.9748 6.30656 14.9748 6.30647C14.9748 6.30637 14.9748 6.30628 14.9748 6.30619C14.9748 6.30609 14.9748 6.306 14.9748 6.30591C14.9748 6.30581 14.9748 6.30572 14.9748 6.30562C14.9748 6.30553 14.9748 6.30544 14.9748 6.30534C14.9748 6.30525 14.9748 6.30516 14.9748 6.30506C14.9748 6.30497 14.9748 6.30487 14.9748 6.30478C14.9748 6.30469 14.9748 6.30459 14.9748 6.3045C14.9748 6.30441 14.9748 6.30431 14.9748 6.30422C14.9748 6.30412 14.9748 6.30403 14.9748 6.30394C14.9748 6.30384 14.9748 6.30375 14.9748 6.30366C14.9748 6.30356 14.9748 6.30347 14.9748 6.30338C14.9748 6.30328 14.9748 6.30319 14.9748 6.30309C14.9748 6.303 14.9748 6.30291 14.9748 6.30281C14.9748 6.30272 14.9748 6.30262 14.9748 6.30253C14.9748 6.30244 14.9748 6.30234 14.9748 6.30225C14.9748 6.30216 14.9748 6.30206 14.9748 6.30197C14.9748 6.30188 14.9748 6.30178 14.9748 6.30169C14.9748 6.30159 14.9748 6.3015 14.9748 6.30141C14.9748 6.30131 14.9748 6.30122 14.9748 6.30112C14.9748 6.30103 14.9748 6.30094 14.9748 6.30084C14.9748 6.30075 14.9748 6.30066 14.9748 6.30056C14.9748 6.30047 14.9748 6.30037 14.9748 6.30028C14.9748 6.30019 14.9748 6.30009 14.9748 6.3C14.9748 6.29991 14.9748 6.29981 14.9748 6.29972C14.9748 6.29962 14.9748 6.29953 14.9748 6.29944C14.9748 6.29934 14.9748 6.29925 14.9748 6.29916C14.9748 6.29906 14.9748 6.29897 14.9748 6.29887C14.9748 6.29878 14.9748 6.29869 14.9748 6.29859C14.9748 6.2985 14.9748 6.29841 14.9748 6.29831C14.9748 6.29822 14.9748 6.29813 14.9748 6.29803C14.9748 6.29794 14.9748 6.29784 14.9748 6.29775C14.9748 6.29766 14.9748 6.29756 14.9748 6.29747C14.9748 6.29737 14.9748 6.29728 14.9748 6.29719C14.9748 6.29709 14.9748 6.297 14.9748 6.29691C14.9748 6.29681 14.9748 6.29672 14.9748 6.29663C14.9748 6.29653 14.9748 6.29644 14.9748 6.29634C14.9748 6.29625 14.9748 6.29616 14.9748 6.29606C14.9748 6.29597 14.9748 6.29587 14.9748 6.29578C14.9748 6.29569 14.9748 6.29559 14.9748 6.2955C14.9748 6.29541 14.9748 6.29531 14.9748 6.29522C14.9748 6.29513 14.9748 6.29503 14.9748 6.29494C14.9748 6.29484 14.9748 6.29475 14.9748 6.29466C14.9748 6.29456 14.9748 6.29447 14.9748 6.29437C14.9748 6.29428 14.9748 6.29419 14.9748 6.29409C14.9748 6.294 14.9748 6.29391 14.9748 6.29381C14.9748 6.29372 14.9748 6.29362 14.9748 6.29353C14.9748 6.29344 14.9748 6.29334 14.9748 6.29325C14.9748 6.29316 14.9748 6.29306 14.9748 6.29297C14.9748 6.29287 14.9748 6.29278 14.9748 6.29269C14.9748 6.29259 14.9748 6.2925 14.9748 6.29241C14.9748 6.29231 14.9748 6.29222 14.9748 6.29212C14.9748 6.29203 14.9748 6.29194 14.9748 6.29184C14.9748 6.29175 14.9748 6.29166 14.9748 6.29156C14.9748 6.29147 14.9748 6.29138 14.9748 6.29128C14.9748 6.29119 14.9748 6.29109 14.9748 6.291C14.9748 6.29091 14.9748 6.29081 14.9748 6.29072C14.9748 6.29062 14.9748 6.29053 14.9748 6.29044C14.9748 6.29034 14.9748 6.29025 14.9748 6.29016C14.9748 6.29006 14.9748 6.28997 14.9748 6.28988C14.9748 6.28978 14.9748 6.28969 14.9748 6.28959C14.9748 6.2895 14.9748 6.28941 14.9748 6.28931C14.9748 6.28922 14.9748 6.28912 14.9748 6.28903C14.9748 6.28894 14.9748 6.28884 14.9748 6.28875C14.9748 6.28866 14.9748 6.28856 14.9748 6.28847C14.9748 6.28837 14.9748 6.28828 14.9748 6.28819C14.9748 6.28809 14.9748 6.288 14.9748 6.28791C14.9748 6.28781 14.9748 6.28772 14.9748 6.28762C14.9748 6.28753 14.9748 6.28744 14.9748 6.28734C14.9748 6.28725 14.9748 6.28716 14.9748 6.28706C14.9748 6.28697 14.9748 6.28687 14.9748 6.28678C14.9748 6.28669 14.9748 6.28659 14.9748 6.2865C14.9748 6.28641 14.9748 6.28631 14.9748 6.28622C14.9748 6.28613 14.9748 6.28603 14.9748 6.28594C14.9748 6.28584 14.9748 6.28575 14.9748 6.28566C14.9748 6.28556 14.9748 6.28547 14.9748 6.28537C14.9748 6.28528 14.9748 6.28519 14.9748 6.28509C14.9748 6.285 14.9748 6.28491 14.9748 6.28481C14.9748 6.28472 14.9748 6.28463 14.9748 6.28453C14.9748 6.28444 14.9748 6.28434 14.9748 6.28425C14.9748 6.28416 14.9748 6.28406 14.9748 6.28397C14.9748 6.28387 14.9748 6.28378 14.9748 6.28369C14.9748 6.28359 14.9748 6.2835 14.9748 6.28341C14.9748 6.28331 14.9748 6.28322 14.9748 6.28312C14.9748 6.28303 14.9748 6.28294 14.9748 6.28284C14.9748 6.28275 14.9748 6.28266 14.9748 6.28256C14.9748 6.28247 14.9748 6.28237 14.9748 6.28228C14.9748 6.28219 14.9748 6.28209 14.9748 6.282C14.9748 6.28191 14.9748 6.28181 14.9748 6.28172C14.9748 6.28162 14.9748 6.28153 14.9748 6.28144C14.9748 6.28134 14.9748 6.28125 14.9748 6.28116C14.9748 6.28106 14.9748 6.28097 14.9748 6.28088C14.9748 6.28078 14.9748 6.28069 14.9748 6.28059C14.9748 6.2805 14.9748 6.28041 14.9748 6.28031C14.9748 6.28022 14.9748 6.28012 14.9748 6.28003C14.9748 6.27994 14.9748 6.27984 14.9748 6.27975C14.9748 6.27966 14.9748 6.27956 14.9748 6.27947C14.9748 6.27938 14.9748 6.27928 14.9748 6.27919C14.9748 6.27909 14.9748 6.279 14.9748 6.27891C14.9748 6.27881 14.9748 6.27872 14.9748 6.27862C14.9748 6.27853 14.9748 6.27844 14.9748 6.27834C14.9748 6.27825 14.9748 6.27816 14.9748 6.27806C14.9748 6.27797 14.9748 6.27787 14.9748 6.27778C14.9748 6.27769 14.9748 6.27759 14.9748 6.2775C14.9748 6.27741 14.9748 6.27731 14.9748 6.27722C14.9748 6.27712 14.9748 6.27703 14.9748 6.27694C14.9748 6.27684 14.9748 6.27675 14.9748 6.27666C14.9748 6.27656 14.9748 6.27647 14.9748 6.27637C14.9748 6.27628 14.9748 6.27619 14.9748 6.27609C14.9748 6.276 14.9748 6.27591 14.9748 6.27581C14.9748 6.27572 14.9748 6.27563 14.9748 6.27553C14.9748 6.27544 14.9748 6.27534 14.9748 6.27525C14.9748 6.27516 14.9748 6.27506 14.9748 6.27497C14.9748 6.27487 14.9748 6.27478 14.9748 6.27469C14.9748 6.27459 14.9748 6.2745 14.9748 6.27441C14.9748 6.27431 14.9748 6.27422 14.9748 6.27413C14.9748 6.27403 14.9748 6.27394 14.9748 6.27384C14.9748 6.27375 14.9748 6.27366 14.9748 6.27356C14.9748 6.27347 14.9748 6.27337 14.9748 6.27328C14.9748 6.27319 14.9748 6.27309 14.9748 6.273C14.9748 6.27291 14.9748 6.27281 14.9748 6.27272C14.9748 6.27262 14.9748 6.27253 14.9748 6.27244C14.9748 6.27234 14.9748 6.27225 14.9748 6.27216C14.9748 6.27206 14.9748 6.27197 14.9748 6.27187C14.9748 6.27178 14.9748 6.27169 14.9748 6.27159C14.9748 6.2715 14.9748 6.27141 14.9748 6.27131C14.9748 6.27122 14.9748 6.27112 14.9748 6.27103C14.9748 6.27094 14.9748 6.27084 14.9748 6.27075C14.9748 6.27066 14.9748 6.27056 14.9748 6.27047C14.9748 6.27038 14.9748 6.27028 14.9748 6.27019C14.9748 6.27009 14.9748 6.27 14.9748 6.26991C14.9748 6.26981 14.9748 6.26972 14.9748 6.26962C14.9748 6.26953 14.9748 6.26944 14.9748 6.26934C14.9748 6.26925 14.9748 6.26916 14.9748 6.26906C14.9748 6.26897 14.9748 6.26888 14.9748 6.26878C14.9748 6.26869 14.9748 6.26859 14.9748 6.2685C14.9748 6.26841 14.9748 6.26831 14.9748 6.26822C14.9748 6.26812 14.9748 6.26803 14.9748 6.26794C14.9748 6.26784 14.9748 6.26775 14.9748 6.26766C14.9748 6.26756 14.9748 6.26747 14.9748 6.26737C14.9748 6.26728 14.9748 6.26719 14.9748 6.26709C14.9748 6.267 14.9748 6.26691 14.9748 6.26681C14.9748 6.26672 14.9748 6.26662 14.9748 6.26653C14.9748 6.26644 14.9748 6.26634 14.9748 6.26625C14.9748 6.26616 14.9748 6.26606 14.9748 6.26597C14.9748 6.26587 14.9748 6.26578 14.9748 6.26569C14.9748 6.26559 14.9748 6.2655 14.9748 6.26541C14.9748 6.26531 14.9748 6.26522 14.9748 6.26513C14.9748 6.26503 14.9748 6.26494 14.9748 6.26484C14.9748 6.26475 14.9748 6.26466 14.9748 6.26456C14.9748 6.26447 14.9748 6.26437 14.9748 6.26428C14.9748 6.26419 14.9748 6.26409 14.9748 6.264C14.9748 6.26391 14.9748 6.26381 14.9748 6.26372C14.9748 6.26363 14.9748 6.26353 14.9748 6.26344C14.9748 6.26334 14.9748 6.26325 14.9748 6.26316C14.9748 6.26306 14.9748 6.26297 14.9748 6.26287C14.9748 6.26278 14.9748 6.26269 14.9748 6.26259C14.9748 6.2625 14.9748 6.26241 14.9748 6.26231C14.9748 6.26222 14.9748 6.26213 14.9748 6.26203C14.9748 6.26194 14.9748 6.26184 14.9748 6.26175C14.9748 6.26166 14.9748 6.26156 14.9748 6.26147C14.9748 6.26137 14.9748 6.26128 14.9748 6.26119C14.9748 6.26109 14.9748 6.261 14.9748 6.26091C14.9748 6.26081 14.9748 6.26072 14.9748 6.26062C14.9748 6.26053 14.9748 6.26044 14.9748 6.26034C14.9748 6.26025 14.9748 6.26016 14.9748 6.26006C14.9748 6.25997 14.9748 6.25988 14.9748 6.25978C14.9748 6.25969 14.9748 6.25959 14.9748 6.2595C14.9748 6.25941 14.9748 6.25931 14.9748 6.25922C14.9748 6.25912 14.9748 6.25903 14.9748 6.25894C14.9748 6.25884 14.9748 6.25875 14.9748 6.25866C14.9748 6.25856 14.9748 6.25847 14.9748 6.25838C14.9748 6.25828 14.9748 6.25819 14.9748 6.25809C14.9748 6.258 14.9748 6.25791 14.9748 6.25781C14.9748 6.25772 14.9748 6.25762 14.9748 6.25753C14.9748 6.25744 14.9748 6.25734 14.9748 6.25725C14.9748 6.25716 14.9748 6.25706 14.9748 6.25697C14.9748 6.25688 14.9748 6.25678 14.9748 6.25669C14.9748 6.25659 14.9748 6.2565 14.9748 6.25641C14.9748 6.25631 14.9748 6.25622 14.9748 6.25612C14.9748 6.25603 14.9748 6.25594 14.9748 6.25584C14.9748 6.25575 14.9748 6.25566 14.9748 6.25556C14.9748 6.25547 14.9748 6.25537 14.9748 6.25528C14.9748 6.25519 14.9748 6.25509 14.9748 6.255C14.9748 6.25491 14.9748 6.25481 14.9748 6.25472C14.9748 6.25462 14.9748 6.25453 14.9748 6.25444C14.9748 6.25434 14.9748 6.25425 14.9748 6.25416C14.9748 6.25406 14.9748 6.25397 14.9748 6.25387C14.9748 6.25378 14.9748 6.25369 14.9748 6.25359C14.9748 6.2535 14.9748 6.25341 14.9748 6.25331C14.9748 6.25322 14.9748 6.25313 14.9748 6.25303C14.9748 6.25294 14.9748 6.25284 14.9748 6.25275C14.9748 6.25266 14.9748 6.25256 14.9748 6.25247C14.9748 6.25237 14.9748 6.25228 14.9748 6.25219C14.9748 6.25209 14.9748 6.252 14.9748 6.25191C14.9748 6.25181 14.9748 6.25172 14.9748 6.25163C14.9748 6.25153 14.9748 6.25144 14.9748 6.25134C14.9748 6.25125 14.9748 6.25116 14.9748 6.25106C14.9748 6.25097 14.9748 6.25087 14.9748 6.25078C14.9748 6.25069 14.9748 6.25059 14.9748 6.2505C14.9748 6.25041 14.9748 6.25031 14.9748 6.25022C14.9748 6.25012 14.9748 6.25003 14.9748 6.24994C14.9748 6.24984 14.9748 6.24975 14.9748 6.24966C14.9748 6.24956 14.9748 6.24947 14.9748 6.24937C14.9748 6.24928 14.9748 6.24919 14.9748 6.24909C14.9748 6.249 14.9748 6.24891 14.9748 6.24881C14.9748 6.24872 14.9748 6.24862 14.9748 6.24853C14.9748 6.24844 14.9748 6.24834 14.9748 6.24825C14.9748 6.24816 14.9748 6.24806 14.9748 6.24797C14.9748 6.24788 14.9748 6.24778 14.9748 6.24769C14.9748 6.24759 14.9748 6.2475 14.9748 6.24741C14.9748 6.24731 14.9748 6.24722 14.9748 6.24712C14.9748 6.24703 14.9748 6.24694 14.9748 6.24684C14.9748 6.24675 14.9748 6.24666 14.9748 6.24656C14.9748 6.24647 14.9748 6.24638 14.9748 6.24628C14.9748 6.24619 14.9748 6.24609 14.9748 6.246C14.9748 6.24591 14.9748 6.24581 14.9748 6.24572C14.9748 6.24562 14.9748 6.24553 14.9748 6.24544C14.9748 6.24534 14.9748 6.24525 14.9748 6.24516C14.9748 6.24506 14.9748 6.24497 14.9748 6.24487C14.9748 6.24478 14.9748 6.24469 14.9748 6.24459C14.9748 6.2445 14.9748 6.24441 14.9748 6.24431C14.9748 6.24422 14.9748 6.24412 14.9748 6.24403C14.9748 6.24394 14.9748 6.24384 14.9748 6.24375C14.9748 6.24366 14.9748 6.24356 14.9748 6.24347C14.9748 6.24337 14.9748 6.24328 14.9748 6.24319C14.9748 6.24309 14.9748 6.243 14.9748 6.24291C14.9748 6.24281 14.9748 6.24272 14.9748 6.24263C14.9748 6.24253 14.9748 6.24244 14.9748 6.24234C14.9748 6.24225 14.9748 6.24216 14.9748 6.24206C14.9748 6.24197 14.9748 6.24187 14.9748 6.24178C14.9748 6.24169 14.9748 6.24159 14.9748 6.2415C14.9748 6.24141 14.9748 6.24131 14.9748 6.24122C14.9748 6.24113 14.9748 6.24103 14.9748 6.24094C14.9748 6.24084 14.9748 6.24075 14.9748 6.24066C14.9748 6.24056 14.9748 6.24047 14.9748 6.24037C14.9748 6.24028 14.9748 6.24019 14.9748 6.24009C14.9748 6.24 14.9748 6.23991 14.9748 6.23981C14.9748 6.23972 14.9748 6.23962 14.9748 6.23953C14.9748 6.23944 14.9748 6.23934 14.9748 6.23925C14.9748 6.23916 14.9748 6.23906 14.9748 6.23897C14.9748 6.23887 14.9748 6.23878 14.9748 6.23869C14.9748 6.23859 14.9748 6.2385 14.9748 6.23841C14.9748 6.23831 14.9748 6.23822 14.9748 6.23812C14.9748 6.23803 14.9748 6.23794 14.9748 6.23784C14.9748 6.23775 14.9748 6.23766 14.9748 6.23756C14.9748 6.23747 14.9748 6.23738 14.9748 6.23728C14.9748 6.23719 14.9748 6.23709 14.9748 6.237C14.9748 6.23691 14.9748 6.23681 14.9748 6.23672C14.9748 6.23662 14.9748 6.23653 14.9748 6.23644C14.9748 6.23634 14.9748 6.23625 14.9748 6.23616C14.9748 6.23606 14.9748 6.23597 14.9748 6.23588C14.9748 6.23578 14.9748 6.23569 14.9748 6.23559C14.9748 6.2355 14.9748 6.23541 14.9748 6.23531C14.9748 6.23522 14.9748 6.23512 14.9748 6.23503C14.9748 6.23494 14.9748 6.23484 14.9748 6.23475C14.9748 6.23466 14.9748 6.23456 14.9748 6.23447C14.9748 6.23438 14.9748 6.23428 14.9748 6.23419C14.9748 6.23409 14.9748 6.234 14.9748 6.23391C14.9748 6.23381 14.9748 6.23372 14.9748 6.23362C14.9748 6.23353 14.9748 6.23344 14.9748 6.23334C14.9748 6.23325 14.9748 6.23316 14.9748 6.23306C14.9748 6.23297 14.9748 6.23287 14.9748 6.23278C14.9748 6.23269 14.9748 6.23259 14.9748 6.2325C14.9748 6.23241 14.9748 6.23231 14.9748 6.23222C14.9748 6.23213 14.9748 6.23203 14.9748 6.23194C14.9748 6.23184 14.9748 6.23175 14.9748 6.23166C14.9748 6.23156 14.9748 6.23147 14.9748 6.23137C14.9748 6.23128 14.9748 6.23119 14.9748 6.23109C14.9748 6.231 14.9748 6.23091 14.9748 6.23081C14.9748 6.23072 14.9748 6.23063 14.9748 6.23053C14.9748 6.23044 14.9748 6.23034 14.9748 6.23025C14.9748 6.23016 14.9748 6.23006 14.9748 6.22997C14.9748 6.22987 14.9748 6.22978 14.9748 6.22969C14.9748 6.22959 14.9748 6.2295 14.9748 6.22941C14.9748 6.22931 14.9748 6.22922 14.9748 6.22913C14.9748 6.22903 14.9748 6.22894 14.9748 6.22884C14.9748 6.22875 14.9748 6.22866 14.9748 6.22856C14.9748 6.22847 14.9748 6.22837 14.9748 6.22828C14.9748 6.22819 14.9748 6.22809 14.9748 6.228C14.9748 6.22791 14.9748 6.22781 14.9748 6.22772C14.9748 6.22762 14.9748 6.22753 14.9748 6.22744C14.9748 6.22734 14.9748 6.22725 14.9748 6.22716C14.9748 6.22706 14.9748 6.22697 14.9748 6.22688C14.9748 6.22678 14.9748 6.22669 14.9748 6.22659C14.9748 6.2265 14.9748 6.22641 14.9748 6.22631C14.9748 6.22622 14.9748 6.22612 14.9748 6.22603C14.9748 6.22594 14.9748 6.22584 14.9748 6.22575C14.9748 6.22566 14.9748 6.22556 14.9748 6.22547C14.9748 6.22538 14.9748 6.22528 14.9748 6.22519C14.9748 6.22509 14.9748 6.225 14.9748 6.22491C14.9748 6.22481 14.9748 6.22472 14.9748 6.22462C14.9748 6.22453 14.9748 6.22444 14.9748 6.22434C14.9748 6.22425 14.9748 6.22416 14.9748 6.22406C14.9748 6.22397 14.9748 6.22388 14.9748 6.22378C14.9748 6.22369 14.9748 6.22359 14.9748 6.2235C14.9748 6.22341 14.9748 6.22331 14.9748 6.22322C14.9748 6.22312 14.9748 6.22303 14.9748 6.22294C14.9748 6.22284 14.9748 6.22275 14.9748 6.22266C14.9748 6.22256 14.9748 6.22247 14.9748 6.22237C14.9748 6.22228 14.9748 6.22219 14.9748 6.22209C14.9748 6.222 14.9748 6.22191 14.9748 6.22181C14.9748 6.22172 14.9748 6.22162 14.9748 6.22153C14.9748 6.22144 14.9748 6.22134 14.9748 6.22125C14.9748 6.22116 14.9748 6.22106 14.9748 6.22097C14.9748 6.22087 14.9748 6.22078 14.9748 6.22069C14.9748 6.22059 14.9748 6.2205 14.9748 6.22041C14.9748 6.22031 14.9748 6.22022 14.9748 6.22013C14.9748 6.22003 14.9748 6.21994 14.9748 6.21984C14.9748 6.21975 14.9748 6.21966 14.9748 6.21956C14.9748 6.21947 14.9748 6.21937 14.9748 6.21928C14.9748 6.21919 14.9748 6.21909 14.9748 6.219C14.9748 6.21891 14.9748 6.21881 14.9748 6.21872C14.9748 6.21863 14.9748 6.21853 14.9748 6.21844C14.9748 6.21834 14.9748 6.21825 14.9748 6.21816C14.9748 6.21806 14.9748 6.21797 14.9748 6.21787C14.9748 6.21778 14.9748 6.21769 14.9748 6.21759C14.9748 6.2175 14.9748 6.21741 14.9748 6.21731C14.9748 6.21722 14.9748 6.21712 14.9748 6.21703C14.9748 6.21694 14.9748 6.21684 14.9748 6.21675C14.9748 6.21666 14.9748 6.21656 14.9748 6.21647C14.9748 6.21637 14.9748 6.21628 14.9748 6.21619C14.9748 6.21609 14.9748 6.216 14.9748 6.21591C14.9748 6.21581 14.9748 6.21572 14.9748 6.21562C14.9748 6.21553 14.9748 6.21544 14.9748 6.21534C14.9748 6.21525 14.9748 6.21516 14.9748 6.21506C14.9748 6.21497 14.9748 6.21488 14.9748 6.21478C14.9748 6.21469 14.9748 6.21459 14.9748 6.2145C14.9748 6.21441 14.9748 6.21431 14.9748 6.21422C14.9748 6.21412 14.9748 6.21403 14.9748 6.21394C14.9748 6.21384 14.9748 6.21375 14.9748 6.21366C14.9748 6.21356 14.9748 6.21347 14.9748 6.21338C14.9748 6.21328 14.9748 6.21319 14.9748 6.21309C14.9748 6.213 14.9748 6.21291 14.9748 6.21281C14.9748 6.21272 14.9748 6.21262 14.9748 6.21253C14.9748 6.21244 14.9748 6.21234 14.9748 6.21225C14.9748 6.21216 14.9748 6.21206 14.9748 6.21197C14.9748 6.21187 14.9748 6.21178 14.9748 6.21169C14.9748 6.21159 14.9748 6.2115 14.9748 6.21141C14.9748 6.21131 14.9748 6.21122 14.9748 6.21112C14.9748 6.21103 14.9748 6.21094 14.9748 6.21084C14.9748 6.21075 14.9748 6.21066 14.9748 6.21056C14.9748 6.21047 14.9748 6.21037 14.9748 6.21028C14.9748 6.21019 14.9748 6.21009 14.9748 6.21C14.9748 6.20991 14.9748 6.20981 14.9748 6.20972C14.9748 6.20963 14.9748 6.20953 14.9748 6.20944C14.9748 6.20934 14.9748 6.20925 14.9748 6.20916C14.9748 6.20906 14.9748 6.20897 14.9748 6.20887C14.9748 6.20878 14.9748 6.20869 14.9748 6.20859C14.9748 6.2085 14.9748 6.20841 14.9748 6.20831C14.9748 6.20822 14.9748 6.20813 14.9748 6.20803C14.9748 6.20794 14.9748 6.20784 14.9748 6.20775C14.9748 6.20766 14.9748 6.20756 14.9748 6.20747C14.9748 6.20737 14.9748 6.20728 14.9748 6.20719C14.9748 6.20709 14.9748 6.207 14.9748 6.20691C14.9748 6.20681 14.9748 6.20672 14.9748 6.20662C14.9748 6.20653 14.9748 6.20644 14.9748 6.20634C14.9748 6.20625 14.9748 6.20616 14.9748 6.20606C14.9748 6.20597 14.9748 6.20587 14.9748 6.20578C14.9748 6.20569 14.9748 6.20559 14.9748 6.2055C14.9748 6.20541 14.9748 6.20531 14.9748 6.20522C14.9748 6.20512 14.9748 6.20503 14.9748 6.20494C14.9748 6.20484 14.9748 6.20475 14.9748 6.20466C14.9748 6.20456 14.9748 6.20447 14.9748 6.20438C14.9748 6.20428 14.9748 6.20419 14.9748 6.20409C14.9748 6.204 14.9748 6.20391 14.9748 6.20381C14.9748 6.20372 14.9748 6.20362 14.9748 6.20353C14.9748 6.20344 14.9748 6.20334 14.9748 6.20325C14.9748 6.20316 14.9748 6.20306 14.9748 6.20297C14.9748 6.20288 14.9748 6.20278 14.9748 6.20269C14.9748 6.20259 14.9748 6.2025 14.9748 6.20241C14.9748 6.20231 14.9748 6.20222 14.9748 6.20212C14.9748 6.20203 14.9748 6.20194 14.9748 6.20184C14.9748 6.20175 14.9748 6.20166 14.9748 6.20156C14.9748 6.20147 14.9748 6.20138 14.9748 6.20128C14.9748 6.20119 14.9748 6.20109 14.9748 6.201C14.9748 6.20091 14.9748 6.20081 14.9748 6.20072C14.9748 6.20062 14.9748 6.20053 14.9748 6.20044C14.9748 6.20034 14.9748 6.20025 14.9748 6.20016C14.9748 6.20006 14.9748 6.19997 14.9748 6.19987C14.9748 6.19978 14.9748 6.19969 14.9748 6.19959C14.9748 6.1995 14.9748 6.19941 14.9748 6.19931C14.9748 6.19922 14.9748 6.19913 14.9748 6.19903C14.9748 6.19894 14.9748 6.19884 14.9748 6.19875C14.9748 6.19866 14.9748 6.19856 14.9748 6.19847C14.9748 6.19837 14.9748 6.19828 14.9748 6.19819C14.9748 6.19809 14.9748 6.198 14.9748 6.19791C14.9748 6.19781 14.9748 6.19772 14.9748 6.19763C14.9748 6.19753 14.9748 6.19744 14.9748 6.19734C14.9748 6.19725 14.9748 6.19716 14.9748 6.19706C14.9748 6.19697 14.9748 6.19687 14.9748 6.19678C14.9748 6.19669 14.9748 6.19659 14.9748 6.1965C14.9748 6.19641 14.9748 6.19631 14.9748 6.19622C14.9748 6.19613 14.9748 6.19603 14.9748 6.19594C14.9748 6.19584 14.9748 6.19575 14.9748 6.19566C14.9748 6.19556 14.9748 6.19547 14.9748 6.19537C14.9748 6.19528 14.9748 6.19519 14.9748 6.19509C14.9748 6.195 14.9748 6.19491 14.9748 6.19481C14.9748 6.19472 14.9748 6.19462 14.9748 6.19453C14.9748 6.19444 14.9748 6.19434 14.9748 6.19425C14.9748 6.19416 14.9748 6.19406 14.9748 6.19397C14.9748 6.19388 14.9748 6.19378 14.9748 6.19369C14.9748 6.19359 14.9748 6.1935 14.9748 6.19341C14.9748 6.19331 14.9748 6.19322 14.9748 6.19312C14.9748 6.19303 14.9748 6.19294 14.9748 6.19284C14.9748 6.19275 14.9748 6.19266 14.9748 6.19256C14.9748 6.19247 14.9748 6.19238 14.9748 6.19228C14.9748 6.19219 14.9748 6.19209 14.9748 6.192H12.9748ZM12.9748 6.336C12.9748 6.32816 12.9755 6.32118 12.9764 6.3156L14.9492 6.6444C14.9662 6.54282 14.9748 6.43984 14.9748 6.336H12.9748ZM13.9628 5.48H9.24684V7.48H13.9628V5.48ZM16.1906 11.64V12.64H17.1906V11.64H16.1906ZM15.2306 11.64H14.2306V12.64H15.2306V11.64ZM15.2306 3.48V2.48H14.2306V3.48H15.2306ZM16.1906 3.48H17.1906V2.48H16.1906V3.48ZM20.4386 7.776L19.5714 7.27813H19.5714L20.4386 7.776ZM19.4426 8.772L18.9555 7.89861L18.9483 7.90271L19.4426 8.772ZM16.8626 8.772L16.3035 9.60112L16.3123 9.60696L16.8626 8.772ZM16.0466 7.776L15.1328 8.18214L15.1359 8.18916L15.1392 8.19612L16.0466 7.776ZM16.0466 4.704L15.1391 4.28386L15.1357 4.29149L16.0466 4.704ZM16.8626 3.708L16.3123 2.87299L16.3035 2.87893L16.8626 3.708ZM19.4426 3.708L18.9483 4.57732L18.9556 4.58136L19.4426 3.708ZM20.4386 4.704L19.5713 5.20188L19.5754 5.20888L20.4386 4.704ZM19.5746 5.16L18.7049 5.65361L18.7099 5.66239L18.7151 5.67108L19.5746 5.16ZM18.8906 4.488L18.4135 5.36691L18.4239 5.37238L18.8906 4.488ZM16.4546 7.32L15.5951 7.83108L16.4546 7.32ZM18.8906 7.992L18.4238 7.10755L18.4135 7.11315L18.8906 7.992ZM19.5746 7.32L18.7151 6.80892L18.7099 6.81761L18.7049 6.82639L19.5746 7.32ZM16.1906 10.64H15.2306V12.64H16.1906V10.64ZM16.2306 11.64V3.48H14.2306V11.64H16.2306ZM15.2306 4.48H16.1906V2.48H15.2306V4.48ZM15.1906 3.48V11.64H17.1906V3.48H15.1906ZM19.8106 6.24C19.8106 6.69034 19.7173 7.02393 19.5714 7.27813L21.3059 8.27387C21.6559 7.66407 21.8106 6.97366 21.8106 6.24H19.8106ZM19.5714 7.27813C19.4094 7.56033 19.2057 7.75913 18.9556 7.89864L19.9297 9.64536C20.5115 9.32087 20.9719 8.85567 21.3059 8.27387L19.5714 7.27813ZM18.9483 7.90271C18.7021 8.04274 18.4185 8.12 18.0746 8.12V10.12C18.7387 10.12 19.3672 9.96526 19.9369 9.64129L18.9483 7.90271ZM18.0746 8.12C17.7976 8.12 17.5882 8.05255 17.4129 7.93704L16.3123 9.60696C16.8411 9.95545 17.4397 10.12 18.0746 10.12V8.12ZM17.4218 7.94293C17.2502 7.82722 17.089 7.64719 16.9541 7.35588L15.1392 8.19612C15.4043 8.76881 15.7871 9.25278 16.3035 9.60107L17.4218 7.94293ZM16.9604 7.36986C16.8377 7.09366 16.7586 6.72628 16.7586 6.24H14.7586C14.7586 6.93772 14.8716 7.59434 15.1328 8.18214L16.9604 7.36986ZM16.7586 6.24C16.7586 5.74275 16.8386 5.37918 16.9576 5.11651L15.1357 4.29149C14.8706 4.87682 14.7586 5.53725 14.7586 6.24H16.7586ZM16.9541 5.12412C17.089 4.83281 17.2502 4.65278 17.4218 4.53707L16.3035 2.87893C15.7871 3.22722 15.4043 3.71119 15.1392 4.28388L16.9541 5.12412ZM17.4129 4.54296C17.5882 4.42745 17.7976 4.36 18.0746 4.36V2.36C17.4397 2.36 16.8411 2.52455 16.3123 2.87304L17.4129 4.54296ZM18.0746 4.36C18.4185 4.36 18.7021 4.43726 18.9483 4.57729L19.9369 2.83871C19.3672 2.51474 18.7387 2.36 18.0746 2.36V4.36ZM18.9556 4.58136C19.2057 4.72087 19.4094 4.91967 19.5714 5.20187L21.3059 4.20613C20.9719 3.62433 20.5115 3.15913 19.9297 2.83464L18.9556 4.58136ZM19.5754 5.20888C19.7159 5.44911 19.8106 5.77828 19.8106 6.24H21.8106C21.8106 5.50172 21.6573 4.80689 21.3018 4.19912L19.5754 5.20888ZM20.8386 6.24C20.8386 5.67752 20.7212 5.13163 20.4342 4.64892L18.7151 5.67108C18.7801 5.78037 18.8386 5.95448 18.8386 6.24H20.8386ZM20.4443 4.66639C20.1865 4.21222 19.8221 3.84888 19.3574 3.60362L18.4239 5.37238C18.5352 5.43112 18.6267 5.51578 18.7049 5.65361L20.4443 4.66639ZM19.3677 3.60915C18.9297 3.37138 18.4516 3.26 17.9546 3.26V5.26C18.1456 5.26 18.2915 5.30062 18.4135 5.36685L19.3677 3.60915ZM17.9546 3.26C17.4852 3.26 17.0427 3.38934 16.6388 3.61506L17.6144 5.36094C17.7545 5.28266 17.8641 5.26 17.9546 5.26V3.26ZM16.6388 3.61506C16.1975 3.86169 15.8513 4.21803 15.5951 4.64892L17.3142 5.67107C17.41 5.50997 17.5118 5.41831 17.6144 5.36094L16.6388 3.61506ZM15.5951 4.64892C15.3081 5.13163 15.1906 5.67752 15.1906 6.24H17.1906C17.1906 5.95448 17.2492 5.78037 17.3142 5.67107L15.5951 4.64892ZM15.1906 6.24C15.1906 6.80248 15.3081 7.34837 15.5951 7.83108L17.3142 6.80892C17.2492 6.69963 17.1906 6.52552 17.1906 6.24H15.1906ZM15.5951 7.83108C15.8513 8.26197 16.1975 8.61831 16.6388 8.86494L17.6144 7.11906C17.5118 7.06169 17.41 6.97003 17.3142 6.80892L15.5951 7.83108ZM16.6388 8.86494C17.0427 9.09066 17.4852 9.22 17.9546 9.22V7.22C17.8641 7.22 17.7545 7.19734 17.6144 7.11906L16.6388 8.86494ZM17.9546 9.22C18.4516 9.22 18.9297 9.10862 19.3677 8.87085L18.4135 7.11315C18.2915 7.17938 18.1456 7.22 17.9546 7.22V9.22ZM19.3574 8.87638C19.8221 8.63112 20.1865 8.26778 20.4443 7.81361L18.7049 6.82639C18.6267 6.96422 18.5352 7.04888 18.4239 7.10762L19.3574 8.87638ZM20.4342 7.83108C20.7212 7.34837 20.8386 6.80248 20.8386 6.24H18.8386C18.8386 6.52552 18.7801 6.69963 18.7151 6.80892L20.4342 7.83108ZM22.6984 6.12V5.12H21.6984V6.12H22.6984ZM25.3264 6.24L25.0719 7.20707L25.3264 6.24ZM26.0464 6.66L26.7971 5.99937V5.99937L26.0464 6.66ZM25.8904 8.568L25.1639 7.8808L25.1634 7.88138L25.8904 8.568ZM22.6984 9H21.6984V10H22.6984V9ZM22.6984 8.16V7.16H21.6984V8.16H22.6984ZM25.0864 7.932L24.4328 7.17518L24.424 7.18272L24.4155 7.19046L25.0864 7.932ZM25.2784 7.08L24.368 7.4938L24.3831 7.52692L24.4005 7.55885L25.2784 7.08ZM25.0864 6.84L24.4174 7.58329L24.4349 7.59905L24.4531 7.61396L25.0864 6.84ZM24.7624 6.684L24.4641 7.63848L24.4984 7.64919L24.5333 7.65742L24.7624 6.684ZM22.6984 6.624H21.6984V7.624H22.6984V6.624ZM22.6984 6.36H21.6984V7.36H22.6984V6.36ZM22.6984 5.796V4.796H21.6984V5.796H22.6984ZM24.5584 5.748L24.8331 6.70952L24.854 6.70355L24.8746 6.69668L24.5584 5.748ZM24.8584 5.58L24.1894 4.83671L24.1894 4.83671L24.8584 5.58ZM25.0384 5.34L24.1439 4.89279L24.1357 4.90934L24.128 4.9262L25.0384 5.34ZM24.8584 4.524L24.2292 5.30124L24.2406 5.31051L24.2523 5.31943L24.8584 4.524ZM22.6984 4.32H21.6984V5.32H22.6984V4.32ZM22.6984 3.48V2.48H21.6984V3.48H22.6984ZM25.1104 3.636L24.7622 4.57343L24.7781 4.57932L24.7941 4.58468L25.1104 3.636ZM25.8064 4.116L25.0201 4.73382L25.0255 4.7408L25.0311 4.74767L25.8064 4.116ZM25.8064 5.76L26.5571 6.42063L26.5635 6.41335L26.5698 6.40594L25.8064 5.76ZM25.1104 6.216L25.4347 7.16195L25.4424 7.15931L25.45 7.15655L25.1104 6.216ZM22.1344 3.48V2.48H21.1344V3.48H22.1344ZM23.0944 3.48H24.0944V2.48H23.0944V3.48ZM23.0944 9V10H24.0944V9H23.0944ZM22.1344 9H21.1344V10H22.1344V9ZM22.6984 7.12H24.2944V5.12H22.6984V7.12ZM24.2944 7.12C24.6107 7.12 24.8669 7.15313 25.0719 7.20707L25.5809 5.27293C25.1779 5.16687 24.7461 5.12 24.2944 5.12V7.12ZM25.0719 7.20707C25.219 7.24579 25.2732 7.29505 25.2957 7.32063L26.7971 5.99937C26.4676 5.62495 26.0417 5.39421 25.5809 5.27293L25.0719 7.20707ZM25.2957 7.32063C25.2825 7.30564 25.2839 7.29932 25.2904 7.31983C25.2979 7.34374 25.3104 7.39957 25.3104 7.5H27.3104C27.3104 6.98301 27.1828 6.43767 26.7971 5.99937L25.2957 7.32063ZM25.3104 7.5C25.3104 7.66636 25.2642 7.77478 25.1639 7.8808L26.6168 9.2552C27.0766 8.76922 27.3104 8.16564 27.3104 7.5H25.3104ZM25.1634 7.88138C25.1626 7.88223 25.1567 7.88844 25.1402 7.89825C25.1231 7.90846 25.0928 7.92359 25.0438 7.93919C24.9424 7.97149 24.7794 8 24.5344 8V10C25.2823 10 26.0696 9.83463 26.6174 9.25462L25.1634 7.88138ZM24.5344 8H22.6984V10H24.5344V8ZM23.6984 9V8.16H21.6984V9H23.6984ZM22.6984 9.16H24.2944V7.16H22.6984V9.16ZM24.2944 9.16C24.7634 9.16 25.3234 9.06608 25.7573 8.67354L24.4155 7.19046C24.4659 7.14479 24.502 7.13735 24.4857 7.14203C24.4665 7.14755 24.408 7.16 24.2944 7.16V9.16ZM25.74 8.68882C26.1169 8.36335 26.3504 7.91092 26.3504 7.38H24.3504C24.3504 7.3477 24.358 7.29916 24.3822 7.24854C24.4055 7.19983 24.4309 7.17674 24.4328 7.17518L25.74 8.68882ZM26.3504 7.38C26.3504 7.12066 26.2934 6.85263 26.1563 6.60115L24.4005 7.55885C24.3593 7.48337 24.3504 7.41534 24.3504 7.38H26.3504ZM26.1887 6.6662C26.075 6.41587 25.9056 6.21819 25.7196 6.06604L24.4531 7.61396C24.4432 7.60581 24.4018 7.56813 24.368 7.4938L26.1887 6.6662ZM25.7553 6.09671C25.5186 5.88363 25.2437 5.76994 24.9914 5.71058L24.5333 7.65742C24.5531 7.66206 24.4942 7.65237 24.4174 7.58329L25.7553 6.09671ZM25.0607 5.72952C24.8077 5.65048 24.5447 5.624 24.2944 5.624V7.624C24.3508 7.624 24.3927 7.6271 24.4222 7.63088C24.4518 7.63468 24.4645 7.63861 24.4641 7.63848L25.0607 5.72952ZM24.2944 5.624H22.6984V7.624H24.2944V5.624ZM23.6984 6.624V6.12H21.6984V6.624H23.6984ZM23.6984 6.36V5.796H21.6984V6.36H23.6984ZM22.6984 6.796H24.1744V4.796H22.6984V6.796ZM24.1744 6.796C24.3903 6.796 24.6136 6.77223 24.8331 6.70952L24.2837 4.78648C24.2791 4.78777 24.2464 4.796 24.1744 4.796V6.796ZM24.8746 6.69668C25.1025 6.62072 25.3288 6.50197 25.5273 6.32329L24.1894 4.83671C24.2279 4.80203 24.2543 4.79527 24.2421 4.79932L24.8746 6.69668ZM25.5273 6.32329C25.698 6.16972 25.8457 5.98058 25.9487 5.7538L24.128 4.9262C24.1511 4.87542 24.1788 4.84628 24.1894 4.83671L25.5273 6.32329ZM25.9328 5.78721C26.0479 5.55695 26.1104 5.3043 26.1104 5.04H24.1104C24.1104 5.01429 24.1134 4.98693 24.12 4.95963C24.1265 4.93245 24.1354 4.9099 24.1439 4.89279L25.9328 5.78721ZM26.1104 5.04C26.1104 4.52022 25.8872 4.05069 25.4644 3.72857L24.2523 5.31943C24.2254 5.29889 24.182 5.25586 24.1488 5.18783C24.1159 5.12054 24.1104 5.06443 24.1104 5.04H26.1104ZM25.4876 3.74675C25.0901 3.42498 24.6151 3.32 24.1744 3.32V5.32C24.2412 5.32 24.2714 5.32805 24.2756 5.32929C24.2772 5.32977 24.2724 5.32847 24.2632 5.32372C24.2538 5.31888 24.2419 5.31153 24.2292 5.30124L25.4876 3.74675ZM24.1744 3.32H22.6984V5.32H24.1744V3.32ZM23.6984 4.32V3.48H21.6984V4.32H23.6984ZM22.6984 4.48H24.1744V2.48H22.6984V4.48ZM24.1744 4.48C24.4173 4.48 24.6091 4.51657 24.7622 4.57343L25.4586 2.69857C25.0516 2.54742 24.6195 2.48 24.1744 2.48V4.48ZM24.7941 4.58468C24.9092 4.62305 24.9731 4.67402 25.0201 4.73382L26.5927 3.49818C26.2877 3.10998 25.8875 2.84095 25.4266 2.68732L24.7941 4.58468ZM25.0311 4.74767C25.0319 4.74855 25.0335 4.75071 25.036 4.75551C25.0386 4.76045 25.0431 4.7701 25.048 4.78622C25.0581 4.81913 25.0704 4.88031 25.0704 4.98H27.0704C27.0704 4.45803 26.9409 3.92527 26.5816 3.48433L25.0311 4.74767ZM25.0704 4.98C25.0704 5.09184 25.0443 5.11255 25.043 5.11406L26.5698 6.40594C26.9205 5.99145 27.0704 5.49216 27.0704 4.98H25.0704ZM25.0557 5.09937C25.0066 5.15514 24.9242 5.22002 24.7707 5.27545L25.45 7.15655C25.8725 7.00398 26.2542 6.76486 26.5571 6.42063L25.0557 5.09937ZM24.7861 5.27005C24.6258 5.32499 24.4256 5.36 24.1744 5.36V7.36C24.6112 7.36 25.0349 7.29901 25.4347 7.16195L24.7861 5.27005ZM24.1744 5.36H22.6984V7.36H24.1744V5.36ZM22.1344 4.48H23.0944V2.48H22.1344V4.48ZM22.0944 3.48V9H24.0944V3.48H22.0944ZM23.0944 8H22.1344V10H23.0944V8ZM23.1344 9V3.48H21.1344V9H23.1344ZM32.1919 4.44L32.9294 5.11532L33.1751 4.84696L33.1909 4.48344L32.1919 4.44ZM27.6319 9.42L26.6328 9.37656L26.5134 12.1222L28.3694 10.0953L27.6319 9.42ZM27.6919 8.04L26.9544 7.36468L26.7086 7.63304L26.6928 7.99656L27.6919 8.04ZM32.2519 3.06L33.2509 3.10344L33.3703 0.357778L31.5144 2.38468L32.2519 3.06ZM28.5919 3.48H29.5919V2.48H28.5919V3.48ZM28.5919 8.1L29.4006 8.68817L29.5919 8.42518V8.1H28.5919ZM27.6319 9.42H26.6319V12.4952L28.4406 10.0082L27.6319 9.42ZM27.6319 3.48V2.48H26.6319V3.48H27.6319ZM32.2519 3.06H33.2519V-0.0151842L31.4431 2.47183L32.2519 3.06ZM32.2519 9V10H33.2519V9H32.2519ZM31.2919 9H30.2919V10H31.2919V9ZM31.2919 4.38L30.4831 3.79183L30.2919 4.05482V4.38H31.2919ZM31.4544 3.76468L26.8944 8.74468L28.3694 10.0953L32.9294 5.11532L31.4544 3.76468ZM28.6309 9.46344L28.6909 8.08344L26.6928 7.99656L26.6328 9.37656L28.6309 9.46344ZM28.4294 8.71532L32.9894 3.73532L31.5144 2.38468L26.9544 7.36468L28.4294 8.71532ZM31.2528 3.01656L31.1928 4.39656L33.1909 4.48344L33.2509 3.10344L31.2528 3.01656ZM27.5919 3.48V8.1H29.5919V3.48H27.5919ZM27.7831 7.51183L26.8231 8.83183L28.4406 10.0082L29.4006 8.68817L27.7831 7.51183ZM28.6319 9.42V3.48H26.6319V9.42H28.6319ZM27.6319 4.48H28.5919V2.48H27.6319V4.48ZM31.2519 3.06V9H33.2519V3.06H31.2519ZM32.2519 8H31.2919V10H32.2519V8ZM32.2919 9V4.38H30.2919V9H32.2919ZM32.1006 4.96817L33.0606 3.64817L31.4431 2.47183L30.4831 3.79183L32.1006 4.96817ZM34.7829 7.26L33.9032 7.73552L33.9081 7.74461L33.9132 7.7536L34.7829 7.26ZM35.4549 7.968L34.9228 8.81464L34.9368 8.82344L34.9511 8.83178L35.4549 7.968ZM37.2549 8.088L37.58 9.03369L37.5884 9.03081L37.5967 9.02779L37.2549 8.088ZM37.9389 7.716L38.5596 8.50005L38.5695 8.49226L38.5791 8.48422L37.9389 7.716ZM38.3469 7.212H39.3469L37.4366 6.7982L38.3469 7.212ZM38.3469 8.412L39.1062 9.06279L39.3469 8.78192V8.412H38.3469ZM37.5189 8.94L37.8416 9.88659L37.8539 9.88221L37.5189 8.94ZM34.9749 8.748L34.4771 9.61525L34.9749 8.748ZM33.9429 7.728L33.0718 8.21901L33.0771 8.22847L33.0826 8.2378L33.9429 7.728ZM33.9429 4.752L33.0826 4.24215L33.0757 4.25413L33.9429 4.752ZM34.9749 3.732L35.4728 4.59925L34.9749 3.732ZM37.5189 3.552L37.1772 4.49179L37.1899 4.49641L37.2027 4.50068L37.5189 3.552ZM38.3469 4.068H39.3469V3.69808L39.1062 3.41721L38.3469 4.068ZM38.3469 5.268L37.4299 5.66673L39.3469 5.268H38.3469ZM37.9389 4.764L38.5596 3.97995V3.97995L37.9389 4.764ZM37.2549 4.404L36.9038 5.34033L36.9211 5.34683L36.9387 5.35268L37.2549 4.404ZM35.4549 4.512L34.951 3.64816L34.9404 3.65451L35.4549 4.512ZM34.7829 5.22L33.9077 4.73629L33.9032 4.74448L34.7829 5.22ZM33.5429 6.24C33.5429 6.76633 33.6537 7.27394 33.9032 7.73552L35.6626 6.78448C35.5921 6.65407 35.5429 6.48167 35.5429 6.24H33.5429ZM33.9132 7.7536C34.1604 8.18902 34.4986 8.54804 34.9228 8.81464L35.9871 7.12136C35.8512 7.03596 35.7415 6.92298 35.6526 6.76639L33.9132 7.7536ZM34.9511 8.83178C35.4041 9.09607 35.9045 9.22 36.4269 9.22V7.22C36.2294 7.22 36.0817 7.17593 35.9588 7.10422L34.9511 8.83178ZM36.4269 9.22C36.8232 9.22 37.2101 9.16085 37.58 9.03369L36.9299 7.14231C36.7878 7.19115 36.6226 7.22 36.4269 7.22V9.22ZM37.5967 9.02779C37.9469 8.90046 38.2723 8.72755 38.5596 8.50005L37.3182 6.93195C37.2216 7.00845 37.091 7.08354 36.9132 7.14821L37.5967 9.02779ZM38.5791 8.48422C38.8541 8.25508 39.0996 7.97277 39.2573 7.6258L37.4366 6.7982C37.4343 6.80323 37.4078 6.85692 37.2988 6.94778L38.5791 8.48422ZM37.3469 7.212V8.412H39.3469V7.212H37.3469ZM37.5877 7.76121C37.538 7.81917 37.4269 7.91141 37.1839 7.99779L37.8539 9.88221C38.331 9.71259 38.7719 9.45283 39.1062 9.06279L37.5877 7.76121ZM37.1963 7.99349C36.9493 8.07768 36.6944 8.12 36.4269 8.12V10.12C36.9115 10.12 37.3846 10.0423 37.8416 9.88651L37.1963 7.99349ZM36.4269 8.12C36.0519 8.12 35.7418 8.03518 35.4728 7.88075L34.4771 9.61525C35.0721 9.95682 35.73 10.12 36.4269 10.12V8.12ZM35.4728 7.88075C35.1917 7.71937 34.972 7.50304 34.8032 7.2182L33.0826 8.2378C33.4258 8.81696 33.8942 9.28063 34.4771 9.61525L35.4728 7.88075ZM34.8141 7.23699C34.6583 6.96053 34.5709 6.63638 34.5709 6.24H32.5709C32.5709 6.94762 32.7316 7.61547 33.0718 8.21901L34.8141 7.23699ZM34.5709 6.24C34.5709 5.83256 34.6596 5.51225 34.8102 5.24987L33.0757 4.25413C32.7303 4.85575 32.5709 5.52744 32.5709 6.24H34.5709ZM34.8032 5.2618C34.972 4.97696 35.1917 4.76063 35.4728 4.59925L34.4771 2.86475C33.8942 3.19937 33.4258 3.66304 33.0826 4.2422L34.8032 5.2618ZM35.4728 4.59925C35.7418 4.44482 36.0519 4.36 36.4269 4.36V2.36C35.73 2.36 35.0721 2.52318 34.4771 2.86475L35.4728 4.59925ZM36.4269 4.36C36.6868 4.36 36.9352 4.40378 37.1772 4.49179L37.8607 2.61221C37.3987 2.44422 36.919 2.36 36.4269 2.36V4.36ZM37.2027 4.50068C37.4391 4.57948 37.5429 4.66653 37.5877 4.71879L39.1062 3.41721C38.767 3.02147 38.3188 2.76452 37.8352 2.60332L37.2027 4.50068ZM37.3469 4.068V5.268H39.3469V4.068H37.3469ZM39.264 4.86927C39.1055 4.50461 38.8525 4.21178 38.5596 3.97995L37.3182 5.54805C37.4094 5.62022 37.4284 5.66339 37.4299 5.66673L39.264 4.86927ZM38.5596 3.97995C38.265 3.74667 37.9306 3.57512 37.5712 3.45532L36.9387 5.35268C37.1073 5.40887 37.2289 5.47733 37.3182 5.54805L38.5596 3.97995ZM37.6061 3.46767C37.2288 3.32621 36.8329 3.26 36.4269 3.26V5.26C36.613 5.26 36.769 5.28979 36.9038 5.34033L37.6061 3.46767ZM36.4269 3.26C35.9045 3.26 35.4041 3.38393 34.9511 3.64822L35.9588 5.37578C36.0817 5.30407 36.2294 5.26 36.4269 5.26V3.26ZM34.9404 3.65451C34.4997 3.91896 34.1553 4.28829 33.9077 4.73631L35.6582 5.70369C35.7466 5.5437 35.8502 5.44104 35.9694 5.36949L34.9404 3.65451ZM33.9032 4.74448C33.6537 5.20606 33.5429 5.71367 33.5429 6.24H35.5429C35.5429 5.99833 35.5921 5.82593 35.6626 5.69552L33.9032 4.74448Z" fill="black" mask="url(#path-1-outside-1_12919_1227)"/>
</svg>
